<svg width="1440" height="979" viewBox="0 0 1440 979" fill="none" xmlns="http://www.w3.org/2000/svg">
<g filter="url(#filter0_f_923_998)">
<path d="M494.299 825.045C516.153 835.547 540.089 841 564.336 841H1282C1392.46 841 1482 751.457 1482 641V128.005C1482 60.0714 1426.93 5 1358.99 5V5C1353.01 5 1347.03 5.4373 1341.1 6.30841L939.783 65.315C857.223 77.4539 790.877 139.577 773.342 221.161L743.989 357.732C728.693 428.903 674.249 485.179 603.623 502.821L525.148 522.425C378.266 559.116 357.842 759.471 494.299 825.045V825.045Z" fill="url(#paint0_linear_923_998)"/>
</g>
<path d="M1098 629L807 832.056L881.5 887H1460V796L1098 629Z" fill="#E3E3E3"/>
<path d="M1119.5 738.108L1002.5 671.108C995.833 665.941 981.7 655.608 978.5 655.608C975.3 655.608 969.833 613.941 967.5 593.108L1096.5 489.108L1275.5 538.608L1457.5 640.108V696.608L1252.5 813.608C1216.83 794.108 1145.3 754.508 1144.5 752.108C1143.5 749.108 1137.5 738.108 1135 736.608C1133 735.408 1123.83 737.108 1119.5 738.108Z" fill="#D85BB3"/>
<path d="M1122.5 733.608L1012 667.608L979.5 651.608L972 588.608L1012 503.608H1112L1273.5 544.608L1420.5 627.608L1487.5 670.608L1252 805.608L1153 749.108C1152 746.108 1144.19 734.678 1140 733.108C1136 731.608 1127.83 732.941 1122.5 733.608Z" fill="#FFB636"/>
<path d="M1354.72 637.169L1340.52 579.162L1421.23 583.803C1420.23 590.506 1414.8 613.502 1413.01 630.208C1411.22 646.914 1372.15 641.551 1354.72 637.169Z" fill="#E79999"/>
<path d="M1421.7 583.664C1425.67 580.901 1426.91 566.815 1426.91 562.667H1338.24L1340.48 580.553C1341.97 582.886 1345.69 584.7 1351.65 586.774C1371.77 593.773 1410.52 591.44 1421.7 583.664Z" fill="#CE9CA7"/>
<ellipse cx="1382.58" cy="558.544" rx="45.4731" ry="24.1535" fill="#FFB6B4"/>
<ellipse cx="1383.15" cy="556.776" rx="36.9469" ry="17.6733" fill="#8F675B"/>
<path d="M1364.4 344.361C1360.14 369.588 1368.71 500.41 1373.53 562.667H1386.27C1394.13 519.006 1409.09 412.279 1406.05 334.659C1388.55 232.782 1369.73 312.828 1364.4 344.361Z" fill="url(#paint1_linear_923_998)" stroke="black" stroke-opacity="0.14"/>
<path d="M1422.59 372.922C1421.76 395.086 1398.96 506.919 1387.66 560.065L1379.97 558.773C1381.12 520.363 1386.47 426.902 1398.77 360.341C1423.05 274.35 1423.63 345.217 1422.59 372.922Z" fill="url(#paint2_linear_923_998)" stroke="black" stroke-opacity="0.14"/>
<path d="M1416.12 467.821C1409.77 476.079 1392.9 534.904 1389.96 559.37L1400.53 562.765C1411.91 548.601 1417.95 533.47 1424.07 503.756C1434.3 468.41 1424.04 457.498 1416.12 467.821Z" fill="url(#paint3_linear_923_998)" stroke="black" stroke-opacity="0.14"/>
<path d="M1385.58 424.838C1382.89 440.765 1388.3 523.361 1391.34 562.667H1399.39C1404.36 535.102 1413.8 467.718 1411.88 418.713C1400.83 354.392 1388.94 404.93 1385.58 424.838Z" fill="url(#paint4_linear_923_998)" stroke="black" stroke-opacity="0.14"/>
<path d="M1347.99 449.042C1347.6 462.598 1361.54 530.529 1368.55 562.799L1375.19 561.815C1376.13 538.315 1376.19 481.2 1368.99 440.737C1352.5 388.673 1348.49 432.098 1347.99 449.042Z" fill="url(#paint5_linear_923_998)" stroke="black" stroke-opacity="0.14"/>
<path d="M1343.31 434.163C1350.67 447.308 1366.88 523.531 1374.07 559.999L1364.95 563.344C1351.87 540.719 1322.92 484.299 1311.84 439.61C1306.96 377.412 1334.11 417.73 1343.31 434.163Z" fill="url(#paint6_linear_923_998)" stroke="black" stroke-opacity="0.14"/>
<path d="M1402.9 517.939C1402.43 523.614 1391.92 550.076 1386.73 562.597L1383.36 561.363C1384.04 551.493 1386.81 527.779 1392.51 511.88C1403.55 492.322 1403.48 510.844 1402.9 517.939Z" fill="url(#paint7_linear_923_998)" stroke="black" stroke-opacity="0.14"/>
<path d="M1397.11 559.076C1393.48 560.49 1393.7 563.985 1394.27 565.556C1395.22 565.949 1397.57 566.499 1399.39 565.556C1401.66 564.378 1403.94 565.556 1403.37 561.433C1402.8 557.309 1401.66 557.309 1397.11 559.076Z" fill="#AF7A80"/>
<path d="M1406.83 556.574C1410.31 557.805 1410.09 560.847 1409.55 562.214C1408.64 562.556 1406.4 563.035 1404.66 562.214C1402.48 561.189 1400.31 562.214 1400.85 558.625C1401.39 555.036 1402.48 555.036 1406.83 556.574Z" fill="#AF7A80"/>
<path d="M1365.05 559.076C1368.69 560.49 1368.46 563.985 1367.89 565.556C1366.94 565.949 1364.59 566.499 1362.77 565.556C1360.5 564.378 1358.23 565.556 1358.79 561.433C1359.36 557.309 1360.5 557.309 1365.05 559.076Z" fill="#AF7A80"/>
<path d="M1386.37 558.768C1383.32 559.794 1383.51 562.329 1383.99 563.468C1384.78 563.753 1386.75 564.152 1388.27 563.468C1390.17 562.613 1392.07 563.468 1391.6 560.477C1391.12 557.486 1390.17 557.486 1386.37 558.768Z" fill="#AF7A80"/>
<path d="M1384.47 562.303C1387.52 563.328 1387.33 565.863 1386.85 567.003C1386.06 567.288 1384.09 567.686 1382.57 567.003C1380.67 566.148 1378.77 567.003 1379.24 564.012C1379.72 561.021 1380.67 561.021 1384.47 562.303Z" fill="#AF7A80"/>
<path d="M1359.08 556.086C1357.34 556.701 1357.45 558.223 1357.72 558.906C1358.18 559.077 1359.3 559.316 1360.17 558.906C1361.26 558.393 1362.35 558.906 1362.07 557.112C1361.8 555.317 1361.26 555.317 1359.08 556.086Z" fill="#AF7A80"/>
<path d="M1352.64 552.877C1355.69 553.902 1355.5 556.438 1355.02 557.577C1354.23 557.862 1352.26 558.261 1350.74 557.577C1348.84 556.722 1346.94 557.577 1347.41 554.586C1347.89 551.595 1348.84 551.595 1352.64 552.877Z" fill="#AF7A80"/>
<path d="M1364 469.139C1361.69 479.889 1366.24 535.66 1368.81 562.203L1375.69 562.213C1379.95 543.608 1388.08 498.125 1386.48 465.036C1375.68 451.326 1366.89 455.702 1364 469.139Z" fill="url(#paint8_linear_923_998)" stroke="black" stroke-opacity="0.14"/>
<path d="M1375.38 558.931C1371.9 560.161 1372.12 563.203 1372.66 564.571C1373.56 564.913 1375.81 565.391 1377.55 564.571C1379.73 563.545 1381.9 564.571 1381.36 560.982C1380.81 557.393 1379.73 557.393 1375.38 558.931Z" fill="#AF7A80"/>
<path d="M1370.83 561.977C1372.57 562.593 1372.46 564.114 1372.19 564.797C1371.74 564.968 1370.62 565.207 1369.75 564.797C1368.66 564.285 1367.57 564.797 1367.84 563.003C1368.11 561.208 1368.66 561.208 1370.83 561.977Z" fill="#AF7A80"/>
<path d="M1315.56 502.632C1316.33 517.515 1343.39 529.419 1353.14 533.911C1355.04 534.787 1357.51 534.34 1358.5 532.499C1359.77 530.141 1360.98 526.857 1360.98 523.217C1360.98 516.012 1341.9 491.31 1333.73 483.076C1325.55 474.842 1314.65 485.134 1315.56 502.632Z" fill="url(#paint9_linear_923_998)" stroke="black" stroke-opacity="0.14"/>
<path d="M65.4773 887.382L81.8203 820.621L-11.077 825.961C-9.93015 833.676 -3.67965 860.143 -1.61526 879.371C0.44912 898.598 45.4068 892.426 65.4773 887.382Z" fill="#E79999"/>
<path d="M-11.6154 825.801C-16.1846 822.622 -17.6187 806.409 -17.6187 801.636H84.4375L81.8647 822.221C80.1494 824.906 75.8613 826.995 69.0004 829.381C45.8448 837.436 1.2488 834.751 -11.6154 825.801Z" fill="#CE9CA7"/>
<ellipse cx="52.3365" cy="27.799" rx="52.3365" ry="27.799" transform="matrix(-1 0 0 1 85.7461 769.091)" fill="#FFB6B4"/>
<ellipse cx="42.5234" cy="20.3408" rx="42.5234" ry="20.3408" transform="matrix(-1 0 0 1 75.2793 774.515)" fill="#8F675B"/>
<path d="M54.3262 550.38C59.2286 579.414 49.3654 729.981 43.821 801.636H29.1569C20.1108 751.385 2.89399 628.548 6.39571 539.213C26.5306 421.96 48.1981 514.087 54.3262 550.38Z" fill="url(#paint10_linear_923_998)" stroke="black" stroke-opacity="0.14"/>
<path d="M-12.6393 583.252C-11.6849 608.761 14.5567 737.473 27.5581 798.641L36.4066 797.154C35.0934 752.946 28.9291 645.378 14.7775 568.772C-13.1727 469.802 -13.8323 551.365 -12.6393 583.252Z" fill="url(#paint11_linear_923_998)" stroke="black" stroke-opacity="0.14"/>
<path d="M-5.19166 692.474C2.10749 701.979 21.5325 769.683 24.9112 797.841L12.7473 801.748C-0.351362 785.446 -7.30584 768.031 -14.3476 733.833C-26.125 693.152 -14.3156 680.592 -5.19166 692.474Z" fill="url(#paint12_linear_923_998)" stroke="black" stroke-opacity="0.14"/>
<path d="M29.9554 643.004C33.0516 661.335 26.8223 756.396 23.3205 801.636H14.059C8.34566 769.909 -2.5281 692.356 -0.316488 635.954C12.4003 561.925 26.0851 620.09 29.9554 643.004Z" fill="url(#paint13_linear_923_998)" stroke="black" stroke-opacity="0.14"/>
<path d="M73.213 670.861C73.6653 686.463 57.6259 764.646 49.5497 801.788L41.9096 800.655C40.8345 773.608 40.7573 707.872 49.0493 661.302C68.0284 601.38 72.6477 651.359 73.213 670.861Z" fill="url(#paint14_linear_923_998)" stroke="black" stroke-opacity="0.14"/>
<path d="M78.6074 653.736C70.1374 668.866 51.4722 756.592 43.1984 798.564L53.6953 802.414C68.7565 776.375 102.068 711.439 114.825 660.005C120.446 588.419 89.1948 634.823 78.6074 653.736Z" fill="url(#paint15_linear_923_998)" stroke="black" stroke-opacity="0.14"/>
<path d="M10.0234 750.156C10.5589 756.688 22.6552 787.144 28.6364 801.555L32.5093 800.135C31.7307 788.775 28.5344 761.482 21.978 743.184C9.26899 720.673 9.354 741.991 10.0234 750.156Z" fill="url(#paint16_linear_923_998)" stroke="black" stroke-opacity="0.14"/>
<path d="M16.6786 797.503C20.8655 799.13 20.6038 803.153 19.9496 804.961C18.8593 805.413 16.155 806.046 14.0607 804.961C11.4428 803.605 8.82705 804.961 9.48125 800.215C10.1355 795.469 11.4449 795.469 16.6786 797.503Z" fill="#AF7A80"/>
<path d="M5.49445 794.623C1.49014 796.04 1.74041 799.541 2.36609 801.115C3.40887 801.508 5.99519 802.059 7.99814 801.115C10.5018 799.934 13.0035 801.115 12.3778 796.984C11.7522 792.853 10.4998 792.853 5.49445 794.623Z" fill="#AF7A80"/>
<path d="M53.5871 797.503C49.4001 799.13 49.6618 803.153 50.316 804.961C51.4064 805.413 54.1106 806.046 56.2049 804.961C58.8228 803.605 61.4386 804.961 60.7844 800.215C60.1302 795.469 58.8207 795.469 53.5871 797.503Z" fill="#AF7A80"/>
<path d="M29.0508 797.148C32.5545 798.328 32.3355 801.246 31.7881 802.557C30.8756 802.885 28.6126 803.344 26.86 802.557C24.6693 801.574 22.4803 802.557 23.0278 799.115C23.5752 795.673 24.671 795.673 29.0508 797.148Z" fill="#AF7A80"/>
<path d="M31.2266 801.216C27.7228 802.397 27.9418 805.314 28.4893 806.626C29.4017 806.953 31.6647 807.412 33.4173 806.626C35.608 805.642 37.797 806.626 37.2496 803.183C36.7021 799.741 35.6063 799.741 31.2266 801.216Z" fill="#AF7A80"/>
<path d="M60.45 794.061C62.4522 794.77 62.3271 796.52 62.0142 797.307C61.4928 797.504 60.1997 797.779 59.1982 797.307C57.9464 796.717 56.6955 797.307 57.0083 795.242C57.3212 793.176 57.9474 793.176 60.45 794.061Z" fill="#AF7A80"/>
<path d="M67.8614 790.368C64.3576 791.548 64.5766 794.466 65.124 795.777C66.0365 796.105 68.2995 796.564 70.0521 795.777C72.2428 794.794 74.4318 795.777 73.8843 792.335C73.3369 788.893 72.2411 788.893 67.8614 790.368Z" fill="#AF7A80"/>
<path d="M54.7921 693.991C57.4526 706.363 52.2081 770.553 49.2533 801.101L41.3401 801.113C36.4324 779.7 27.078 727.352 28.9213 689.269C41.3531 673.489 51.4664 678.526 54.7921 693.991Z" fill="url(#paint17_linear_923_998)" stroke="black" stroke-opacity="0.14"/>
<path d="M41.697 797.335C45.7013 798.752 45.451 802.253 44.8253 803.827C43.7825 804.22 41.1962 804.771 39.1933 803.827C36.6896 802.646 34.1879 803.827 34.8136 799.696C35.4392 795.565 36.6916 795.565 41.697 797.335Z" fill="#AF7A80"/>
<path d="M46.9269 800.842C44.9248 801.55 45.0499 803.301 45.3627 804.087C45.8841 804.284 47.1773 804.559 48.1788 804.087C49.4306 803.497 50.6814 804.087 50.3686 802.022C50.0558 799.957 49.4296 799.957 46.9269 800.842Z" fill="#AF7A80"/>
<path d="M110.544 732.539C109.641 749.937 77.5247 763.798 66.7784 768.776C64.881 769.655 62.4266 769.222 61.393 767.404C59.8354 764.665 58.2689 760.679 58.2689 756.231C58.2689 747.939 80.2245 719.508 89.6341 710.031C99.0436 700.554 111.59 712.4 110.544 732.539Z" fill="url(#paint18_linear_923_998)" stroke="black" stroke-opacity="0.14"/>
<path d="M1222.08 762.638L1274.2 563.421L1290.23 557.18C1271.19 625.666 1231.9 763.575 1227.09 767.32C1222.28 771.065 1221.75 765.759 1222.08 762.638Z" fill="#090009"/>
<path d="M1403.48 675.774L1338.34 527.531L1349.86 516.608L1411 670.052L1403.48 675.774Z" fill="#090009"/>
<path d="M1217.02 606.836L1374.03 514.846C1375.87 513.769 1377 511.799 1377 509.669V506.261C1377 504.017 1375.75 501.961 1373.75 500.931L1082.02 350.169C1080.15 349.201 1077.9 349.288 1076.11 350.398L936.494 436.848C932.645 439.232 932.722 444.857 936.634 447.135L1210.97 606.845C1212.84 607.934 1215.16 607.931 1217.02 606.836Z" fill="#464E82"/>
<path d="M1219.03 596.829L1371.85 506.986C1375.87 504.621 1375.78 498.77 1371.68 496.542L1084.06 340.271C1082.17 339.243 1079.87 339.308 1078.04 340.442L938.494 426.848C934.645 429.232 934.722 434.857 938.634 437.135L1212.97 596.842C1214.84 597.933 1217.16 597.928 1219.03 596.829Z" fill="#BBBFD6"/>
<path d="M1069.5 327.108V367.108L1088.5 383.608V339.108L1069.5 327.108Z" fill="#5A41F3"/>
<path d="M1109 329.608L1108 372.108L1088 384.608V338.926L1109 329.608Z" fill="#716EFC"/>
<path d="M1108.95 323.108L1108.95 330.608L1088 339.608L1088 332.108L1108.95 323.108Z" fill="#797979"/>
<path d="M1069 322.608V330.608L1088 339.608L1088 332.335L1069 322.608Z" fill="#797979"/>
<path d="M1087.5 313.108C1087.1 312.708 1075 319.275 1069 322.608L1087.5 332.608L1109 323.608C1102 320.275 1087.9 313.508 1087.5 313.108Z" fill="#4B4745"/>
<path d="M1163.69 518.582L1072.19 462.581L1072.19 460.081L1120.69 430.081L1207.5 482.148L1207.5 485.648L1163.69 518.582Z" fill="#736D99"/>
<path d="M1120 429.581L1207.5 482.081L1163 515.081L1072 460.081L1120 429.581Z" fill="#8F8DCC"/>
<path d="M1122.72 442.861L1114.11 437.592L1114.11 437.357L1118.68 434.534L1126.84 439.433L1126.84 439.762L1122.72 442.861Z" fill="#736D99"/>
<path d="M1118.61 434.487L1126.84 439.427L1122.66 442.531L1114.09 437.357L1118.61 434.487Z" fill="#8F8DCC"/>
<path d="M1118.61 434.487L1126.84 439.427L1122.66 442.531L1114.09 437.357L1118.61 434.487Z" fill="#ABA9D9"/>
<path d="M1116.72 446.861L1108.11 441.592L1108.11 441.357L1112.68 438.534L1120.84 443.433L1120.84 443.762L1116.72 446.861Z" fill="#736D99"/>
<path d="M1112.61 438.487L1120.84 443.427L1116.66 446.531L1108.09 441.357L1112.61 438.487Z" fill="#8F8DCC"/>
<path d="M1112.61 438.487L1120.84 443.427L1116.66 446.531L1108.09 441.357L1112.61 438.487Z" fill="#ABA9D9"/>
<path d="M1110.72 450.861L1102.11 445.592L1102.11 445.357L1106.68 442.534L1114.84 447.433L1114.84 447.762L1110.72 450.861Z" fill="#736D99"/>
<path d="M1106.61 442.487L1114.84 447.427L1110.66 450.531L1102.09 445.357L1106.61 442.487Z" fill="#8F8DCC"/>
<path d="M1106.61 442.487L1114.84 447.427L1110.66 450.531L1102.09 445.357L1106.61 442.487Z" fill="#ABA9D9"/>
<path d="M1104.72 454.861L1096.11 449.592L1096.11 449.357L1100.68 446.534L1108.84 451.433L1108.84 451.762L1104.72 454.861Z" fill="#736D99"/>
<path d="M1100.61 446.487L1108.84 451.427L1104.66 454.531L1096.09 449.357L1100.61 446.487Z" fill="#8F8DCC"/>
<path d="M1100.61 446.487L1108.84 451.427L1104.66 454.531L1096.09 449.357L1100.61 446.487Z" fill="#ABA9D9"/>
<path d="M1097.72 459.861L1089.11 454.592L1089.11 454.357L1093.68 451.534L1101.84 456.433L1101.84 456.762L1097.72 459.861Z" fill="#736D99"/>
<path d="M1093.61 451.487L1101.84 456.427L1097.66 459.531L1089.09 454.357L1093.61 451.487Z" fill="#8F8DCC"/>
<path d="M1093.61 451.487L1101.84 456.427L1097.66 459.531L1089.09 454.357L1093.61 451.487Z" fill="#ABA9D9"/>
<path d="M1090.72 464.861L1082.11 459.592L1082.11 459.357L1086.68 456.534L1094.84 461.433L1094.84 461.762L1090.72 464.861Z" fill="#736D99"/>
<path d="M1086.61 456.487L1094.84 461.427L1090.66 464.531L1082.09 459.357L1086.61 456.487Z" fill="#8F8DCC"/>
<path d="M1086.61 456.487L1094.84 461.427L1090.66 464.531L1082.09 459.357L1086.61 456.487Z" fill="#ABA9D9"/>
<path d="M1131.72 448.861L1123.11 443.592L1123.11 443.357L1127.68 440.534L1135.84 445.433L1135.84 445.762L1131.72 448.861Z" fill="#736D99"/>
<path d="M1127.61 440.487L1135.84 445.427L1131.66 448.531L1123.09 443.357L1127.61 440.487Z" fill="#8F8DCC"/>
<path d="M1127.61 440.487L1135.84 445.427L1131.66 448.531L1123.09 443.357L1127.61 440.487Z" fill="#ABA9D9"/>
<path d="M1125.72 452.861L1117.11 447.592L1117.11 447.357L1121.68 444.534L1129.84 449.433L1129.84 449.762L1125.72 452.861Z" fill="#736D99"/>
<path d="M1121.61 444.487L1129.84 449.427L1125.66 452.531L1117.09 447.357L1121.61 444.487Z" fill="#8F8DCC"/>
<path d="M1121.61 444.487L1129.84 449.427L1125.66 452.531L1117.09 447.357L1121.61 444.487Z" fill="#ABA9D9"/>
<path d="M1119.72 456.861L1111.11 451.592L1111.11 451.357L1115.68 448.534L1123.84 453.433L1123.84 453.762L1119.72 456.861Z" fill="#736D99"/>
<path d="M1115.61 448.487L1123.84 453.427L1119.66 456.531L1111.09 451.357L1115.61 448.487Z" fill="#8F8DCC"/>
<path d="M1115.61 448.487L1123.84 453.427L1119.66 456.531L1111.09 451.357L1115.61 448.487Z" fill="#ABA9D9"/>
<path d="M1113.72 460.861L1105.11 455.592L1105.11 455.357L1109.68 452.534L1117.84 457.433L1117.84 457.762L1113.72 460.861Z" fill="#736D99"/>
<path d="M1109.61 452.487L1117.84 457.427L1113.66 460.531L1105.09 455.357L1109.61 452.487Z" fill="#8F8DCC"/>
<path d="M1109.61 452.487L1117.84 457.427L1113.66 460.531L1105.09 455.357L1109.61 452.487Z" fill="#ABA9D9"/>
<path d="M1106.72 465.861L1098.11 460.592L1098.11 460.357L1102.68 457.534L1110.84 462.433L1110.84 462.762L1106.72 465.861Z" fill="#736D99"/>
<path d="M1102.61 457.487L1110.84 462.427L1106.66 465.531L1098.09 460.357L1102.61 457.487Z" fill="#8F8DCC"/>
<path d="M1102.61 457.487L1110.84 462.427L1106.66 465.531L1098.09 460.357L1102.61 457.487Z" fill="#ABA9D9"/>
<path d="M1099.72 470.861L1091.11 465.592L1091.11 465.357L1095.68 462.534L1103.84 467.433L1103.84 467.762L1099.72 470.861Z" fill="#736D99"/>
<path d="M1095.61 462.487L1103.84 467.427L1099.66 470.531L1091.09 465.357L1095.61 462.487Z" fill="#8F8DCC"/>
<path d="M1095.61 462.487L1103.84 467.427L1099.66 470.531L1091.09 465.357L1095.61 462.487Z" fill="#ABA9D9"/>
<path d="M1141.72 454.861L1133.11 449.592L1133.11 449.357L1137.68 446.534L1145.84 451.433L1145.84 451.762L1141.72 454.861Z" fill="#736D99"/>
<path d="M1137.61 446.487L1145.84 451.427L1141.66 454.531L1133.09 449.357L1137.61 446.487Z" fill="#8F8DCC"/>
<path d="M1137.61 446.487L1145.84 451.427L1141.66 454.531L1133.09 449.357L1137.61 446.487Z" fill="#ABA9D9"/>
<path d="M1135.72 458.861L1127.11 453.592L1127.11 453.357L1131.68 450.534L1139.84 455.433L1139.84 455.762L1135.72 458.861Z" fill="#736D99"/>
<path d="M1131.61 450.487L1139.84 455.427L1135.66 458.531L1127.09 453.357L1131.61 450.487Z" fill="#8F8DCC"/>
<path d="M1131.61 450.487L1139.84 455.427L1135.66 458.531L1127.09 453.357L1131.61 450.487Z" fill="#ABA9D9"/>
<path d="M1129.72 462.861L1121.11 457.592L1121.11 457.357L1125.68 454.534L1133.84 459.433L1133.84 459.762L1129.72 462.861Z" fill="#736D99"/>
<path d="M1125.61 454.487L1133.84 459.427L1129.66 462.531L1121.09 457.357L1125.61 454.487Z" fill="#8F8DCC"/>
<path d="M1125.61 454.487L1133.84 459.427L1129.66 462.531L1121.09 457.357L1125.61 454.487Z" fill="#ABA9D9"/>
<path d="M1123.72 466.861L1115.11 461.592L1115.11 461.357L1119.68 458.534L1127.84 463.433L1127.84 463.762L1123.72 466.861Z" fill="#736D99"/>
<path d="M1119.61 458.487L1127.84 463.427L1123.66 466.531L1115.09 461.357L1119.61 458.487Z" fill="#8F8DCC"/>
<path d="M1119.61 458.487L1127.84 463.427L1123.66 466.531L1115.09 461.357L1119.61 458.487Z" fill="#ABA9D9"/>
<path d="M1116.72 471.861L1108.11 466.592L1108.11 466.357L1112.68 463.534L1120.84 468.433L1120.84 468.762L1116.72 471.861Z" fill="#736D99"/>
<path d="M1112.61 463.487L1120.84 468.427L1116.66 471.531L1108.09 466.357L1112.61 463.487Z" fill="#8F8DCC"/>
<path d="M1112.61 463.487L1120.84 468.427L1116.66 471.531L1108.09 466.357L1112.61 463.487Z" fill="#ABA9D9"/>
<path d="M1109.72 476.861L1101.11 471.592L1101.11 471.357L1105.68 468.534L1113.84 473.433L1113.84 473.762L1109.72 476.861Z" fill="#736D99"/>
<path d="M1105.61 468.487L1113.84 473.427L1109.66 476.531L1101.09 471.357L1105.61 468.487Z" fill="#8F8DCC"/>
<path d="M1105.61 468.487L1113.84 473.427L1109.66 476.531L1101.09 471.357L1105.61 468.487Z" fill="#ABA9D9"/>
<path d="M1151.72 460.861L1143.11 455.592L1143.11 455.357L1147.68 452.534L1155.84 457.433L1155.84 457.762L1151.72 460.861Z" fill="#736D99"/>
<path d="M1147.61 452.487L1155.84 457.427L1151.66 460.531L1143.09 455.357L1147.61 452.487Z" fill="#8F8DCC"/>
<path d="M1147.61 452.487L1155.84 457.427L1151.66 460.531L1143.09 455.357L1147.61 452.487Z" fill="#ABA9D9"/>
<path d="M1145.72 464.861L1137.11 459.592L1137.11 459.357L1141.68 456.534L1149.84 461.433L1149.84 461.762L1145.72 464.861Z" fill="#736D99"/>
<path d="M1141.61 456.487L1149.84 461.427L1145.66 464.531L1137.09 459.357L1141.61 456.487Z" fill="#8F8DCC"/>
<path d="M1141.61 456.487L1149.84 461.427L1145.66 464.531L1137.09 459.357L1141.61 456.487Z" fill="#ABA9D9"/>
<path d="M1139.72 468.861L1131.11 463.592L1131.11 463.357L1135.68 460.534L1143.84 465.433L1143.84 465.762L1139.72 468.861Z" fill="#736D99"/>
<path d="M1135.61 460.487L1143.84 465.427L1139.66 468.531L1131.09 463.357L1135.61 460.487Z" fill="#8F8DCC"/>
<path d="M1135.61 460.487L1143.84 465.427L1139.66 468.531L1131.09 463.357L1135.61 460.487Z" fill="#ABA9D9"/>
<path d="M1133.72 472.861L1125.11 467.592L1125.11 467.357L1129.68 464.534L1137.84 469.433L1137.84 469.762L1133.72 472.861Z" fill="#736D99"/>
<path d="M1129.61 464.487L1137.84 469.427L1133.66 472.531L1125.09 467.357L1129.61 464.487Z" fill="#8F8DCC"/>
<path d="M1129.61 464.487L1137.84 469.427L1133.66 472.531L1125.09 467.357L1129.61 464.487Z" fill="#ABA9D9"/>
<path d="M1126.72 477.861L1118.11 472.592L1118.11 472.357L1122.68 469.534L1130.84 474.433L1130.84 474.762L1126.72 477.861Z" fill="#736D99"/>
<path d="M1122.61 469.487L1130.84 474.427L1126.66 477.531L1118.09 472.357L1122.61 469.487Z" fill="#8F8DCC"/>
<path d="M1122.61 469.487L1130.84 474.427L1126.66 477.531L1118.09 472.357L1122.61 469.487Z" fill="#ABA9D9"/>
<path d="M1119.72 482.861L1111.11 477.592L1111.11 477.357L1115.68 474.534L1123.84 479.433L1123.84 479.762L1119.72 482.861Z" fill="#736D99"/>
<path d="M1115.61 474.487L1123.84 479.427L1119.66 482.531L1111.09 477.357L1115.61 474.487Z" fill="#8F8DCC"/>
<path d="M1115.61 474.487L1123.84 479.427L1119.66 482.531L1111.09 477.357L1115.61 474.487Z" fill="#ABA9D9"/>
<path d="M1160.72 466.861L1152.11 461.592L1152.11 461.357L1156.68 458.534L1164.84 463.433L1164.84 463.762L1160.72 466.861Z" fill="#736D99"/>
<path d="M1156.61 458.487L1164.84 463.427L1160.66 466.531L1152.09 461.357L1156.61 458.487Z" fill="#8F8DCC"/>
<path d="M1156.61 458.487L1164.84 463.427L1160.66 466.531L1152.09 461.357L1156.61 458.487Z" fill="#ABA9D9"/>
<path d="M1154.72 470.861L1146.11 465.592L1146.11 465.357L1150.68 462.534L1158.84 467.433L1158.84 467.762L1154.72 470.861Z" fill="#736D99"/>
<path d="M1150.61 462.487L1158.84 467.427L1154.66 470.531L1146.09 465.357L1150.61 462.487Z" fill="#8F8DCC"/>
<path d="M1150.61 462.487L1158.84 467.427L1154.66 470.531L1146.09 465.357L1150.61 462.487Z" fill="#ABA9D9"/>
<path d="M1148.72 474.861L1140.11 469.592L1140.11 469.357L1144.68 466.534L1152.84 471.433L1152.84 471.762L1148.72 474.861Z" fill="#736D99"/>
<path d="M1144.61 466.487L1152.84 471.427L1148.66 474.531L1140.09 469.357L1144.61 466.487Z" fill="#8F8DCC"/>
<path d="M1144.61 466.487L1152.84 471.427L1148.66 474.531L1140.09 469.357L1144.61 466.487Z" fill="#ABA9D9"/>
<path d="M1142.72 478.861L1134.11 473.592L1134.11 473.357L1138.68 470.534L1146.84 475.433L1146.84 475.762L1142.72 478.861Z" fill="#736D99"/>
<path d="M1138.61 470.487L1146.84 475.427L1142.66 478.531L1134.09 473.357L1138.61 470.487Z" fill="#8F8DCC"/>
<path d="M1138.61 470.487L1146.84 475.427L1142.66 478.531L1134.09 473.357L1138.61 470.487Z" fill="#ABA9D9"/>
<path d="M1135.72 483.861L1127.11 478.592L1127.11 478.357L1131.68 475.534L1139.84 480.433L1139.84 480.762L1135.72 483.861Z" fill="#736D99"/>
<path d="M1131.61 475.487L1139.84 480.427L1135.66 483.531L1127.09 478.357L1131.61 475.487Z" fill="#8F8DCC"/>
<path d="M1131.61 475.487L1139.84 480.427L1135.66 483.531L1127.09 478.357L1131.61 475.487Z" fill="#ABA9D9"/>
<path d="M1128.72 488.861L1120.11 483.592L1120.11 483.357L1124.68 480.534L1132.84 485.433L1132.84 485.762L1128.72 488.861Z" fill="#736D99"/>
<path d="M1124.61 480.487L1132.84 485.427L1128.66 488.531L1120.09 483.357L1124.61 480.487Z" fill="#8F8DCC"/>
<path d="M1124.61 480.487L1132.84 485.427L1128.66 488.531L1120.09 483.357L1124.61 480.487Z" fill="#ABA9D9"/>
<path d="M1170.72 472.861L1162.11 467.592L1162.11 467.357L1166.68 464.534L1174.84 469.433L1174.84 469.762L1170.72 472.861Z" fill="#736D99"/>
<path d="M1166.61 464.487L1174.84 469.427L1170.66 472.531L1162.09 467.357L1166.61 464.487Z" fill="#8F8DCC"/>
<path d="M1166.61 464.487L1174.84 469.427L1170.66 472.531L1162.09 467.357L1166.61 464.487Z" fill="#ABA9D9"/>
<path d="M1164.72 476.861L1156.11 471.592L1156.11 471.357L1160.68 468.534L1168.84 473.433L1168.84 473.762L1164.72 476.861Z" fill="#736D99"/>
<path d="M1160.61 468.487L1168.84 473.427L1164.66 476.531L1156.09 471.357L1160.61 468.487Z" fill="#8F8DCC"/>
<path d="M1160.61 468.487L1168.84 473.427L1164.66 476.531L1156.09 471.357L1160.61 468.487Z" fill="#ABA9D9"/>
<path d="M1158.72 480.861L1150.11 475.592L1150.11 475.357L1154.68 472.534L1162.84 477.433L1162.84 477.762L1158.72 480.861Z" fill="#736D99"/>
<path d="M1154.61 472.487L1162.84 477.427L1158.66 480.531L1150.09 475.357L1154.61 472.487Z" fill="#8F8DCC"/>
<path d="M1154.61 472.487L1162.84 477.427L1158.66 480.531L1150.09 475.357L1154.61 472.487Z" fill="#ABA9D9"/>
<path d="M1152.72 484.861L1144.11 479.592L1144.11 479.357L1148.68 476.534L1156.84 481.433L1156.84 481.762L1152.72 484.861Z" fill="#736D99"/>
<path d="M1148.61 476.487L1156.84 481.427L1152.66 484.531L1144.09 479.357L1148.61 476.487Z" fill="#8F8DCC"/>
<path d="M1148.61 476.487L1156.84 481.427L1152.66 484.531L1144.09 479.357L1148.61 476.487Z" fill="#ABA9D9"/>
<path d="M1145.72 489.861L1137.11 484.592L1137.11 484.357L1141.68 481.534L1149.84 486.433L1149.84 486.762L1145.72 489.861Z" fill="#736D99"/>
<path d="M1141.61 481.487L1149.84 486.427L1145.66 489.531L1137.09 484.357L1141.61 481.487Z" fill="#8F8DCC"/>
<path d="M1141.61 481.487L1149.84 486.427L1145.66 489.531L1137.09 484.357L1141.61 481.487Z" fill="#ABA9D9"/>
<path d="M1138.72 494.861L1130.11 489.592L1130.11 489.357L1134.68 486.534L1142.84 491.433L1142.84 491.762L1138.72 494.861Z" fill="#736D99"/>
<path d="M1134.61 486.487L1142.84 491.427L1138.66 494.531L1130.09 489.357L1134.61 486.487Z" fill="#8F8DCC"/>
<path d="M1134.61 486.487L1142.84 491.427L1138.66 494.531L1130.09 489.357L1134.61 486.487Z" fill="#9190AC"/>
<path d="M1181.72 479.861L1173.11 474.592L1173.11 474.357L1177.68 471.534L1185.84 476.433L1185.84 476.762L1181.72 479.861Z" fill="#736D99"/>
<path d="M1177.61 471.487L1185.84 476.427L1181.66 479.531L1173.09 474.357L1177.61 471.487Z" fill="#8F8DCC"/>
<path d="M1050 411.608L1005 381.608L1085 383.108V390.608L1050 411.608Z" fill="#F1DDC4"/>
<path d="M1051 403.108C1049.73 403.531 1048.46 409.318 1049.92 411.396L1051 412.108C1050.54 412.031 1050.18 411.775 1049.92 411.396L1001.5 379.608L1000.5 370.108L1051 403.108Z" fill="#AC2921"/>
<path d="M1050.5 403.608L1001 370.608L1034.5 352.608L1084.53 381.264C1085.19 381.643 1085.2 382.592 1084.55 382.987L1050.5 403.608Z" fill="#D1362D"/>
<path d="M1047.84 392.675L1008.89 366.709L1078.14 368.007V374.499L1047.84 392.675Z" fill="#F1DDC4"/>
<path d="M1047.99 393.104C1047 392.429 1047.41 385.75 1048.71 385.318L1005 356.755L1005.87 364.978L1047.99 393.104Z" fill="#9921AC"/>
<path d="M1048.5 385.608L1005.43 357.188L1034.43 341.608L1077.53 366.298C1078.19 366.676 1078.2 367.626 1077.55 368.021L1048.5 385.608Z" fill="#D12DC0"/>
<path d="M1177.61 471.487L1185.84 476.427L1181.66 479.531L1173.09 474.357L1177.61 471.487Z" fill="#ABA9D9"/>
<path d="M1175.72 483.861L1167.11 478.592L1167.11 478.357L1171.68 475.534L1179.84 480.433L1179.84 480.762L1175.72 483.861Z" fill="#736D99"/>
<path d="M1171.61 475.487L1179.84 480.427L1175.66 483.531L1167.09 478.357L1171.61 475.487Z" fill="#8F8DCC"/>
<path d="M1171.61 475.487L1179.84 480.427L1175.66 483.531L1167.09 478.357L1171.61 475.487Z" fill="#ABA9D9"/>
<path d="M1169.72 487.861L1161.11 482.592L1161.11 482.357L1165.68 479.534L1173.84 484.433L1173.84 484.762L1169.72 487.861Z" fill="#736D99"/>
<path d="M1165.61 479.487L1173.84 484.427L1169.66 487.531L1161.09 482.357L1165.61 479.487Z" fill="#8F8DCC"/>
<path d="M1165.61 479.487L1173.84 484.427L1169.66 487.531L1161.09 482.357L1165.61 479.487Z" fill="#ABA9D9"/>
<path d="M1163.72 491.861L1155.11 486.592L1155.11 486.357L1159.68 483.534L1167.84 488.433L1167.84 488.762L1163.72 491.861Z" fill="#736D99"/>
<path d="M1159.61 483.487L1167.84 488.427L1163.66 491.531L1155.09 486.357L1159.61 483.487Z" fill="#8F8DCC"/>
<path d="M1159.61 483.487L1167.84 488.427L1163.66 491.531L1155.09 486.357L1159.61 483.487Z" fill="#ABA9D9"/>
<path d="M1156.72 496.861L1148.11 491.592L1148.11 491.357L1152.68 488.534L1160.84 493.433L1160.84 493.762L1156.72 496.861Z" fill="#736D99"/>
<path d="M1152.61 488.487L1160.84 493.427L1156.66 496.531L1148.09 491.357L1152.61 488.487Z" fill="#8F8DCC"/>
<path d="M1152.61 488.487L1160.84 493.427L1156.66 496.531L1148.09 491.357L1152.61 488.487Z" fill="#9190AC"/>
<path d="M1149.72 501.861L1141.11 496.592L1141.11 496.357L1145.68 493.534L1153.84 498.433L1153.84 498.762L1149.72 501.861Z" fill="#736D99"/>
<path d="M1145.61 493.487L1153.84 498.427L1149.66 501.531L1141.09 496.357L1145.61 493.487Z" fill="#8F8DCC"/>
<path d="M1145.61 493.487L1153.84 498.427L1149.66 501.531L1141.09 496.357L1145.61 493.487Z" fill="#9190AC"/>
<path d="M1192.72 486.861L1184.11 481.592L1184.11 481.357L1188.68 478.534L1196.84 483.433L1196.84 483.762L1192.72 486.861Z" fill="#736D99"/>
<path d="M1188.61 478.487L1196.84 483.427L1192.66 486.531L1184.09 481.357L1188.61 478.487Z" fill="#8F8DCC"/>
<path d="M1188.61 478.487L1196.84 483.427L1192.66 486.531L1184.09 481.357L1188.61 478.487Z" fill="#ABA9D9"/>
<path d="M1186.72 490.861L1178.11 485.592L1178.11 485.357L1182.68 482.534L1190.84 487.433L1190.84 487.762L1186.72 490.861Z" fill="#736D99"/>
<path d="M1182.61 482.487L1190.84 487.427L1186.66 490.531L1178.09 485.357L1182.61 482.487Z" fill="#8F8DCC"/>
<path d="M1182.61 482.487L1190.84 487.427L1186.66 490.531L1178.09 485.357L1182.61 482.487Z" fill="#ABA9D9"/>
<path d="M1180.72 494.861L1172.11 489.592L1172.11 489.357L1176.68 486.534L1184.84 491.433L1184.84 491.762L1180.72 494.861Z" fill="#736D99"/>
<path d="M1176.61 486.487L1184.84 491.427L1180.66 494.531L1172.09 489.357L1176.61 486.487Z" fill="#8F8DCC"/>
<path d="M1176.61 486.487L1184.84 491.427L1180.66 494.531L1172.09 489.357L1176.61 486.487Z" fill="#ABA9D9"/>
<path d="M1174.72 498.861L1166.11 493.592L1166.11 493.357L1170.68 490.534L1178.84 495.433L1178.84 495.762L1174.72 498.861Z" fill="#736D99"/>
<path d="M1170.61 490.487L1178.84 495.427L1174.66 498.531L1166.09 493.357L1170.61 490.487Z" fill="#8F8DCC"/>
<path d="M1170.61 490.487L1178.84 495.427L1174.66 498.531L1166.09 493.357L1170.61 490.487Z" fill="#ABA9D9"/>
<path d="M1167.72 503.861L1159.11 498.592L1159.11 498.357L1163.68 495.534L1171.84 500.433L1171.84 500.762L1167.72 503.861Z" fill="#736D99"/>
<path d="M1163.61 495.487L1171.84 500.427L1167.66 503.531L1159.09 498.357L1163.61 495.487Z" fill="#8F8DCC"/>
<path d="M1163.61 495.487L1171.84 500.427L1167.66 503.531L1159.09 498.357L1163.61 495.487Z" fill="#ABA9D9"/>
<path d="M1160.72 508.861L1152.11 503.592L1152.11 503.357L1156.68 500.534L1164.84 505.433L1164.84 505.762L1160.72 508.861Z" fill="#736D99"/>
<path d="M1156.61 500.487L1164.84 505.427L1160.66 508.531L1152.09 503.357L1156.61 500.487Z" fill="#8F8DCC"/>
<path d="M1156.61 500.487L1164.84 505.427L1160.66 508.531L1152.09 503.357L1156.61 500.487Z" fill="#9190AC"/>
<path d="M1078.5 653.108H1057L1052 644.108L1059.5 631.108C1069.17 625.441 1090 606.608 1090 612.608C1090 618.608 1081.83 645.108 1078.5 653.108Z" fill="#D9D9D9"/>
<path d="M1151 719.608C1150.2 717.208 1153.67 710.608 1156 708.108L1215 692.108C1217 692.608 1221.2 695.408 1222 702.608C1223 711.608 1201.5 718.608 1197 721.608C1193.5 723.941 1189.5 720.608 1175.5 729.608C1161.5 738.608 1152 722.608 1151 719.608Z" fill="#494949"/>
<path d="M1162 703.589L1163.5 695.068C1168.67 690.902 1181.84 682.804 1183 686.589C1185 693.089 1185.5 696.068 1186 699.568C1185.83 700.568 1185.82 706.304 1180 708.568C1171 712.068 1164.5 707.589 1162 703.589Z" fill="#FFFFFD"/>
<path d="M1154 715.66C1152.76 711.971 1156.41 704.935 1159.25 699.866C1160 698.539 1161.5 697.832 1163 698.089C1162 700.756 1162.3 707.06 1169.5 708.66C1178.5 710.66 1183 703.66 1185 701.66C1187 699.66 1183.5 691.66 1185 693.16C1186.5 694.66 1205.5 689.16 1207 688.66C1208.5 688.16 1219.5 690.16 1220 698.66C1220.5 707.16 1201.5 715.16 1197 717.66C1192.5 720.16 1186.5 719.66 1181 721.66C1175.5 723.66 1171 727.16 1165.5 727.16C1160 727.16 1155.5 720.108 1154 715.66Z" fill="url(#paint19_linear_923_998)"/>
<path d="M1196.21 702.98L1187.44 695.09C1186.36 693.779 1190.4 693.872 1192.56 694.083C1194.87 696.15 1199.67 700.504 1200.39 701.378C1201.11 702.252 1197.91 702.81 1196.21 702.98Z" fill="#D9D9D9"/>
<path d="M1204.09 701.739L1195.31 693.849C1194.24 692.538 1198.28 692.632 1200.44 692.842C1202.75 694.909 1207.55 699.263 1208.26 700.137C1208.98 701.011 1205.78 701.569 1204.09 701.739Z" fill="#D9D9D9"/>
<path d="M1041.01 697.276C1040.21 694.876 1043.67 688.276 1046.01 685.776L1105.01 669.776C1107.01 670.276 1111.21 673.076 1112.01 680.276C1113.01 689.276 1091.51 696.276 1087.01 699.276C1083.51 701.609 1079.51 698.276 1065.51 707.276C1051.51 716.276 1042.01 700.276 1041.01 697.276Z" fill="#494949"/>
<path d="M1052.01 681.257L1054 668.108C1057.5 670.608 1077.21 663.212 1076.5 667.108C1075.5 672.608 1075.51 673.736 1076.01 677.236C1075.84 678.236 1075.83 683.972 1070.01 686.236C1061.01 689.736 1054.51 685.257 1052.01 681.257Z" fill="#FFFFFD"/>
<path d="M1044.01 693.328C1042.69 689.438 1046.82 682.889 1049.71 677.974C1050.23 677.081 1050.97 676.328 1051.85 675.795L1053 675.108C1052.5 678.108 1052.31 684.728 1059.51 686.328C1068.5 688.328 1074.12 682.013 1075.01 679.328C1076 676.328 1075.5 670.608 1076 671.108C1077.5 672.608 1095.51 666.828 1097.01 666.328C1098.51 665.828 1109.51 667.828 1110.01 676.328C1110.51 684.828 1091.51 692.828 1087.01 695.328C1082.51 697.828 1076.51 697.328 1071.01 699.328C1065.51 701.328 1061.01 704.828 1055.51 704.828C1050.01 704.828 1045.51 697.776 1044.01 693.328Z" fill="url(#paint20_linear_923_998)"/>
<path d="M1086.22 680.648L1077.44 672.758C1076.37 671.447 1080.41 671.54 1082.57 671.751C1084.88 673.818 1089.68 678.172 1090.4 679.046C1091.11 679.92 1087.91 680.478 1086.22 680.648Z" fill="#D9D9D9"/>
<path d="M1094.1 679.407L1085.32 671.517C1084.24 670.206 1088.29 670.3 1090.44 670.51C1092.75 672.577 1097.55 676.931 1098.27 677.805C1098.99 678.679 1095.79 679.237 1094.1 679.407Z" fill="#D9D9D9"/>
<path d="M1162.96 693.703L1158.63 678.332C1158.26 677.021 1158.82 675.626 1159.99 674.934L1174.06 666.634C1175.78 665.62 1178 666.535 1178.49 668.469C1180.2 675.115 1182.67 684.817 1183 687.108C1183.5 690.608 1180 690.108 1177.5 693.608C1175.8 695.991 1169.63 696.128 1165.47 695.808C1164.27 695.716 1163.29 694.859 1162.96 693.703Z" fill="#F8A8A7"/>
<path d="M1054 668.108L1056.5 652.608L1078.5 653.108C1078.5 653.108 1076.66 663.108 1076.66 666.608C1076.66 668.189 1071 671.108 1067 671.108C1060.5 671.108 1056 670.108 1054 668.108Z" fill="#F8A8A7"/>
<path d="M1027 629.108C1007.8 633.108 1000 623.108 998.5 617.608L1027 561.108L1089 533.108L1163 578.608C1172.83 624.275 1179.2 663.708 1178 668.108C1176.5 673.608 1157.5 678.108 1152.5 678.108C1147.5 678.108 1149.5 651.608 1134 637.108C1121.6 625.508 1116.83 594.941 1116 581.108C1115 582.608 1051 624.108 1027 629.108Z" fill="#E3DAEB"/>
<path d="M1116 581.108C1115 582.608 1051 624.108 1027 629.108C1007.8 633.108 1000 623.108 998.5 617.608L1027 561.108L1089 533.108L1163 578.608C1172.83 624.275 1179.2 663.708 1178 668.108C1176.5 673.608 1157.5 678.108 1152.5 678.108C1147.5 678.108 1149.5 651.608 1134 637.108C1121.6 625.508 1116.83 594.941 1116 581.108ZM1116 581.108C1116.8 579.908 1123.33 574.608 1126.5 572.108" stroke="black" stroke-opacity="0.12"/>
<path d="M939.582 396.998L931.047 394.752C930.686 394.657 930.31 394.63 929.939 394.673L919.639 395.861C918.361 396.009 917.319 396.954 917.053 398.213C915.493 405.614 913.137 417.382 913.5 418.108C913.89 418.886 927.876 427.93 935.387 432.718C935.792 432.975 936.239 433.129 936.716 433.172C951.785 434.525 981.138 437.108 983.5 437.108C985.188 437.108 988.291 434.802 990.797 432.621C992.233 431.371 992.003 429.129 990.41 428.087L980.5 421.608L940.371 397.332C940.125 397.183 939.859 397.071 939.582 396.998Z" fill="#E6E6E6" stroke="black" stroke-opacity="0.12"/>
<path d="M931 417.108C926.2 410.308 928 398.62 931 394.62C927.667 393.786 914 391.608 906 394.62C897.097 397.972 889.5 406.608 885 414.12C878.777 424.508 881.167 431.62 880 438.12C901.5 454.786 945.2 488.12 948 488.12C951.5 488.12 982 604.62 995.5 616.62C1006.3 626.22 1037.68 618.608 1048.5 612.608V565.108C1059 568.108 1126.5 501.608 1129.5 492.608C1132.5 483.608 1113.5 475.608 1112 476.608C1110.5 477.608 1080.5 499.118 1068.5 510.618C1056.5 522.118 1050.66 499.936 1041.5 483.608C1030 463.108 1025.1 450.339 1019.5 446.608C1015 443.608 994.5 427.108 991.5 429.108C961.5 438.108 937 425.608 931 417.108Z" fill="#818BC5"/>
<path d="M1048.5 565.108C1059 568.108 1126.5 501.608 1129.5 492.608C1132.5 483.608 1113.5 475.608 1112 476.608C1110.5 477.608 1080.5 499.118 1068.5 510.618C1056.5 522.118 1050.66 499.936 1041.5 483.608C1030 463.108 1025.1 450.339 1019.5 446.608C1015 443.608 994.5 427.108 991.5 429.108C961.5 438.108 937 425.608 931 417.108C926.2 410.308 928 398.62 931 394.62C927.667 393.786 914 391.608 906 394.62C897.097 397.972 889.5 406.608 885 414.12C878.777 424.508 881.167 431.62 880 438.12C901.5 454.786 945.2 488.12 948 488.12C951.5 488.12 982 604.62 995.5 616.62C1006.3 626.22 1037.68 618.608 1048.5 612.608C1048.5 612.608 1048.5 583.658 1048.5 565.108ZM1048.5 565.108C1030.45 556.783 1022.33 548.669 1014 530.62" stroke="black" stroke-opacity="0.12"/>
<path d="M949.058 386.021C950.658 382.421 948.391 379.188 947.058 378.021L988.559 334.021C995.392 332.188 1009.96 333.121 1013.56 351.521C1018.06 374.521 992.809 407.21 988.559 407.521C983.809 407.868 980.309 403.868 980.309 403.868C976.975 401.701 975.259 401.221 974.059 402.021C970.859 411.221 977.724 419.188 981.557 422.021C980.39 422.521 974.658 424.721 961.059 423.521C942.058 419.521 937.058 407.354 938.558 400.021C941.391 396.854 947.458 389.621 949.058 386.021Z" fill="#F5A0A3"/>
<path d="M930.31 343.868C932.71 351.068 933.976 365.201 934.31 371.368C934.504 374.368 941.309 379.868 948.309 383.368C955.309 386.868 961.309 378.868 962.809 377.368C964.309 375.868 966.809 373.868 968.309 375.868C969.809 377.868 976.309 375.868 976.809 372.868C977.309 369.868 976.809 361.868 987.309 361.868C994.909 360.668 994.809 352.701 993.809 348.868C996.809 339.868 1000.31 344.868 1007.31 347.368C1016.31 350.582 1019.81 346.368 1019.81 335.868C1019.81 325.56 1009.81 315.868 999.309 308.868C988.809 301.868 971.809 303.368 966.809 304.868C961.809 306.368 948.309 305.368 945.309 309.868C942.309 314.368 938.81 317.368 934.31 321.868C929.81 326.368 927.31 334.868 930.31 343.868Z" fill="#242328"/>
<path d="M1017.5 369.608L986.5 362.608L987.5 359.608C994.5 361.108 1017.5 367.608 1017.5 367.108C1017.5 366.608 1016.5 364.108 1013.5 363.608V362.108C1013.5 362.108 1014.35 362.329 1015 362.608C1018.5 364.108 1019 367.108 1019 368.608C1019 372.108 1017.68 374.262 1016 375.608C1013.5 377.608 1009.5 377.108 1009.5 377.108L1010 376.108C1011.5 376.108 1014.09 375.522 1015.5 374.108C1016.66 372.947 1017 372.108 1017.5 369.608Z" fill="#D9D9D9"/>
<path d="M960.001 764.608C957.354 758.726 959.001 752.608 962.001 748.608C958.334 751.275 945.482 759.961 942.002 773.108C937.502 790.108 954.501 804.108 994.501 803.608C1034.5 803.108 1034.5 776.608 1033 770.608C1031.91 766.242 1013.5 748.608 1016.5 752.108C1018.9 754.908 1016.5 761.608 1015 764.608C995.501 785.608 964.501 774.608 960.001 764.608Z" fill="url(#paint21_linear_923_998)"/>
<path d="M967.201 671.275C964.39 670.108 961.607 669.332 959.5 668.608L1012.5 665.108C1012.83 666.275 1014.1 668.508 1006.5 670.108C997 672.108 996 697.608 996 714.108C996 727.332 1001 743.275 1004 749.608C1011 764.108 997.038 766.608 984 766.608C970.5 766.608 965.5 757.108 969 751.108C971.807 746.295 977.167 735.608 978 729.108V695.246C978 685.588 976.121 674.978 967.201 671.275Z" fill="url(#paint22_linear_923_998)"/>
<path d="M1033.5 628.108C1020.5 630.108 1004.17 626.775 998.001 621.108C997.001 625.608 994.3 636.308 1001.5 641.108C1008.7 645.908 1030.33 639.608 1039 636.108L1102 592.608C1085.33 602.441 1048.88 625.741 1033.5 628.108Z" fill="#3A3C3D"/>
<path d="M1037.61 635.608C1021.61 644.408 1006.61 642.275 1001.11 640.108C985.274 642.775 955.808 652.208 964.608 668.608C994.608 676.208 1017.77 669.441 1025.61 665.108L1060.61 640.108C1073.44 630.275 1099.71 609.608 1102.11 605.608C1104.51 601.608 1103.11 594.608 1102.11 591.608C1087.27 602.608 1053.61 626.808 1037.61 635.608Z" fill="#464A4D"/>
<path d="M1049 636.608C1048.6 642.608 1038.33 638.941 1034.5 637.108L1026.5 640.108C1026.5 640.108 1026.5 640.108 1037 645.108C1052.51 652.491 1056.67 642.775 1057 636.608V602.608L1048.5 606.608C1048.83 614.108 1049.4 630.608 1049 636.608Z" fill="#D9D9D9"/>
<path d="M847.17 473.272C846.092 469.617 846.355 465.696 847.91 462.217L852.491 451.969C858.95 437.522 876.393 431.702 890.233 439.376L915 453.108L953.711 473.684C964.359 479.344 971.976 489.404 974.534 501.188L1003.41 634.2C1005.07 641.806 1003.54 649.757 999.187 656.211V656.211C994.309 663.442 986.507 668.172 977.84 669.15L972.35 669.77C964.633 670.641 956.834 669.144 949.988 665.476L925.089 652.138C911.616 644.92 900.356 634.179 892.511 621.062V621.062C890.207 617.21 888.399 613.083 887.13 608.778L847.17 473.272Z" fill="#777779"/>
<path d="M846.228 472.296C845.444 468.982 846.048 465.492 847.901 462.635V462.635C853.229 454.421 863.516 450.965 872.722 454.295L880.5 457.108L933.247 489.538C942.679 495.337 949.365 504.703 951.783 515.507L975.644 622.083C977.167 628.885 976.265 636.006 973.095 642.214V642.214C968.629 650.96 960.305 657.094 950.628 658.768L950.233 658.837C943.612 659.983 936.799 658.821 930.932 655.547L909.175 643.403C901.124 638.91 893.949 633.002 887.993 625.964V625.964C883.067 620.142 879.585 613.24 877.828 605.819L846.228 472.296Z" fill="#2C2C36"/>
<path d="M1011.69 613.428C1010.66 612.926 1010 611.878 1010 610.729L1010 598.574C1010 597.38 1010.71 596.3 1011.8 595.823L1090.23 561.684C1090.41 561.606 1090.6 561.546 1090.79 561.505L1104.86 558.41C1106.73 557.998 1108.5 559.423 1108.5 561.34L1108.5 572.42C1108.5 573.468 1107.95 574.44 1107.06 574.984L1033.69 619.524C1031.08 621.11 1027.84 621.262 1025.09 619.929L1011.69 613.428Z" fill="#464A4D"/>
<path d="M1011.58 601.039C1009.42 600.002 1009.28 596.967 1011.35 595.748L1089.03 549.973C1089.94 549.437 1091.07 549.419 1092 549.927L1106.9 558.09C1108.94 559.204 1108.99 562.107 1107 563.297L1034.1 606.856C1031.23 608.575 1027.68 608.739 1024.66 607.293L1011.58 601.039Z" fill="#D9D9D9"/>
<path d="M1169 436.108C1171 434.508 1169.83 422.441 1169 416.608L1191 428.108V443.88C1191 446.267 1190.06 448.569 1188.27 450.142C1186.23 451.932 1183.55 454.081 1181 455.608C1177 458.008 1175 458.108 1173.5 457.608L1158.8 450.824C1155.95 449.509 1153.28 445.827 1155.5 443.608C1156.62 442.49 1166.5 438.108 1169 436.108Z" fill="url(#paint23_linear_923_998)"/>
<path d="M1121.5 292.108L1125.22 386.621L1244.22 455.121C1244.22 433.288 1244.52 385.221 1245.72 367.621C1246.92 350.021 1242.89 345.621 1240.72 345.621C1207.55 326.621 1139.42 287.521 1132.22 283.121C1125.02 278.721 1120.83 288.441 1121.5 292.108Z" fill="#B9BCD1"/>
<path d="M1121.5 291.608V389.608L1240.5 458.108C1240.5 436.275 1240.8 388.208 1242 370.608C1243.2 353.008 1239.17 348.608 1237 348.608C1203.83 329.608 1135.7 290.508 1128.5 286.108C1121.3 281.708 1120.83 287.941 1121.5 291.608Z" fill="#696878"/>
<path d="M1127.5 387.608V291.608L1235.5 354.608L1233.5 448.608L1127.5 387.608Z" fill="#F7F7F7"/>
<path d="M1070.24 449.422C1060.39 449.502 1053.76 453.887 1050.84 455.163L1043.18 437.659C1047.4 435.493 1054.35 432.707 1061.5 428.108C1065.5 425.536 1069.24 423.608 1074.5 422.108C1084.42 419.283 1101.5 427.108 1096 431.608C1091.96 434.914 1079.79 430.608 1077.5 438.608C1076.5 442.108 1091.06 438.841 1092 440.108C1096.83 446.567 1081.47 449.332 1070.24 449.422Z" fill="#F5A0A3"/>
<path d="M1041.5 436.108L1015.5 446.108L1029 466.108C1036.17 462.775 1051.2 455.708 1054 454.108C1057.5 452.108 1057.5 446.108 1055 439.108C1053 433.508 1045.17 434.775 1041.5 436.108Z" fill="#818BC5" stroke="black" stroke-opacity="0.12"/>
<path d="M1144.5 478.108C1135.5 482.108 1131.17 488.775 1129 491.108L1115 478.108C1118 474.441 1125.6 465.708 1132 460.108C1137.71 455.108 1137.32 455.143 1141.5 453.608C1151.18 450.054 1170.92 462.482 1165.5 464.108C1162.64 464.966 1160.08 466.478 1158.53 467.522C1162.6 465.166 1168.29 465.416 1169.5 466.108C1176.5 470.108 1154.77 473.544 1144.5 478.108Z" fill="#F5A0A3"/>
<path d="M1078.5 653.108H1057L1052 644.108L1059.5 631.108C1069.17 625.441 1090 606.608 1090 612.608C1090 618.608 1081.83 645.108 1078.5 653.108Z" fill="#D9D9D9"/>
<path d="M1151 719.608C1150.2 717.208 1153.67 710.608 1156 708.108L1215 692.108C1217 692.608 1221.2 695.408 1222 702.608C1223 711.608 1201.5 718.608 1197 721.608C1193.5 723.941 1189.5 720.608 1175.5 729.608C1161.5 738.608 1152 722.608 1151 719.608Z" fill="#494949"/>
<path d="M1162 703.589L1163.5 695.068C1168.67 690.902 1181.84 682.804 1183 686.589C1185 693.089 1185.5 696.068 1186 699.568C1185.83 700.568 1185.82 706.304 1180 708.568C1171 712.068 1164.5 707.589 1162 703.589Z" fill="#FFFFFD"/>
<path d="M1154 715.66C1152.76 711.971 1156.41 704.935 1159.25 699.866C1160 698.539 1161.5 697.832 1163 698.089C1162 700.756 1162.3 707.06 1169.5 708.66C1178.5 710.66 1183 703.66 1185 701.66C1187 699.66 1183.5 691.66 1185 693.16C1186.5 694.66 1205.5 689.16 1207 688.66C1208.5 688.16 1219.5 690.16 1220 698.66C1220.5 707.16 1201.5 715.16 1197 717.66C1192.5 720.16 1186.5 719.66 1181 721.66C1175.5 723.66 1171 727.16 1165.5 727.16C1160 727.16 1155.5 720.108 1154 715.66Z" fill="url(#paint24_linear_923_998)"/>
<path d="M1196.21 702.98L1187.44 695.09C1186.36 693.779 1190.4 693.872 1192.56 694.083C1194.87 696.15 1199.67 700.504 1200.39 701.378C1201.11 702.252 1197.91 702.81 1196.21 702.98Z" fill="#D9D9D9"/>
<path d="M1204.09 701.739L1195.31 693.849C1194.24 692.538 1198.28 692.632 1200.44 692.842C1202.75 694.909 1207.55 699.263 1208.26 700.137C1208.98 701.011 1205.78 701.569 1204.09 701.739Z" fill="#D9D9D9"/>
<path d="M1041.01 697.276C1040.21 694.876 1043.67 688.276 1046.01 685.776L1105.01 669.776C1107.01 670.276 1111.21 673.076 1112.01 680.276C1113.01 689.276 1091.51 696.276 1087.01 699.276C1083.51 701.609 1079.51 698.276 1065.51 707.276C1051.51 716.276 1042.01 700.276 1041.01 697.276Z" fill="#494949"/>
<path d="M1052.01 681.257L1054 668.108C1057.5 670.608 1077.21 663.212 1076.5 667.108C1075.5 672.608 1075.51 673.736 1076.01 677.236C1075.84 678.236 1075.83 683.972 1070.01 686.236C1061.01 689.736 1054.51 685.257 1052.01 681.257Z" fill="#FFFFFD"/>
<path d="M1044.01 693.328C1042.69 689.438 1046.82 682.889 1049.71 677.974C1050.23 677.081 1050.97 676.328 1051.85 675.795L1053 675.108C1052.5 678.108 1052.31 684.728 1059.51 686.328C1068.5 688.328 1074.12 682.013 1075.01 679.328C1076 676.328 1075.5 670.608 1076 671.108C1077.5 672.608 1095.51 666.828 1097.01 666.328C1098.51 665.828 1109.51 667.828 1110.01 676.328C1110.51 684.828 1091.51 692.828 1087.01 695.328C1082.51 697.828 1076.51 697.328 1071.01 699.328C1065.51 701.328 1061.01 704.828 1055.51 704.828C1050.01 704.828 1045.51 697.776 1044.01 693.328Z" fill="url(#paint25_linear_923_998)"/>
<path d="M1086.22 680.648L1077.44 672.758C1076.37 671.447 1080.41 671.54 1082.57 671.751C1084.88 673.818 1089.68 678.172 1090.4 679.046C1091.11 679.92 1087.91 680.478 1086.22 680.648Z" fill="#D9D9D9"/>
<path d="M1094.1 679.407L1085.32 671.517C1084.24 670.206 1088.29 670.3 1090.44 670.51C1092.75 672.577 1097.55 676.931 1098.27 677.805C1098.99 678.679 1095.79 679.237 1094.1 679.407Z" fill="#D9D9D9"/>
<path d="M1162.96 693.703L1158.63 678.332C1158.26 677.021 1158.82 675.626 1159.99 674.934L1174.06 666.634C1175.78 665.62 1178 666.535 1178.49 668.469C1180.2 675.115 1182.67 684.817 1183 687.108C1183.5 690.608 1180 690.108 1177.5 693.608C1175.8 695.991 1169.63 696.128 1165.47 695.808C1164.27 695.716 1163.29 694.859 1162.96 693.703Z" fill="#F8A8A7"/>
<path d="M1054 668.108L1056.5 652.608L1078.5 653.108C1078.5 653.108 1076.66 663.108 1076.66 666.608C1076.66 668.189 1071 671.108 1067 671.108C1060.5 671.108 1056 670.108 1054 668.108Z" fill="#F8A8A7"/>
<path d="M1027 629.108C1007.8 633.108 1000 623.108 998.5 617.608L1027 561.108L1089 533.108L1163 578.608C1172.83 624.275 1179.2 663.708 1178 668.108C1176.5 673.608 1157.5 678.108 1152.5 678.108C1147.5 678.108 1149.5 651.608 1134 637.108C1121.6 625.508 1116.83 594.941 1116 581.108C1115 582.608 1051 624.108 1027 629.108Z" fill="#E3DAEB"/>
<path d="M1116 581.108C1115 582.608 1051 624.108 1027 629.108C1007.8 633.108 1000 623.108 998.5 617.608L1027 561.108L1089 533.108L1163 578.608C1172.83 624.275 1179.2 663.708 1178 668.108C1176.5 673.608 1157.5 678.108 1152.5 678.108C1147.5 678.108 1149.5 651.608 1134 637.108C1121.6 625.508 1116.83 594.941 1116 581.108ZM1116 581.108C1116.8 579.908 1123.33 574.608 1126.5 572.108" stroke="black" stroke-opacity="0.12"/>
<path d="M939.582 396.998L931.047 394.752C930.686 394.657 930.31 394.63 929.939 394.673L919.639 395.861C918.361 396.009 917.319 396.954 917.053 398.213C915.493 405.614 913.137 417.382 913.5 418.108C913.89 418.886 927.876 427.93 935.387 432.718C935.792 432.975 936.239 433.129 936.716 433.172C951.785 434.525 981.138 437.108 983.5 437.108C985.188 437.108 988.291 434.802 990.797 432.621C992.233 431.371 992.003 429.129 990.41 428.087L980.5 421.608L940.371 397.332C940.125 397.183 939.859 397.071 939.582 396.998Z" fill="#E6E6E6" stroke="black" stroke-opacity="0.12"/>
<path d="M931 417.108C926.2 410.308 928 398.62 931 394.62C927.667 393.786 914 391.608 906 394.62C897.097 397.972 889.5 406.608 885 414.12C878.777 424.508 881.167 431.62 880 438.12C901.5 454.786 945.2 488.12 948 488.12C951.5 488.12 982 604.62 995.5 616.62C1006.3 626.22 1037.68 618.608 1048.5 612.608V565.108C1059 568.108 1126.5 501.608 1129.5 492.608C1132.5 483.608 1113.5 475.608 1112 476.608C1110.5 477.608 1080.5 499.118 1068.5 510.618C1056.5 522.118 1050.66 499.936 1041.5 483.608C1030 463.108 1025.1 450.339 1019.5 446.608C1015 443.608 994.5 427.108 991.5 429.108C961.5 438.108 937 425.608 931 417.108Z" fill="#818BC5"/>
<path d="M1048.5 565.108C1059 568.108 1126.5 501.608 1129.5 492.608C1132.5 483.608 1113.5 475.608 1112 476.608C1110.5 477.608 1080.5 499.118 1068.5 510.618C1056.5 522.118 1050.66 499.936 1041.5 483.608C1030 463.108 1025.1 450.339 1019.5 446.608C1015 443.608 994.5 427.108 991.5 429.108C961.5 438.108 937 425.608 931 417.108C926.2 410.308 928 398.62 931 394.62C927.667 393.786 914 391.608 906 394.62C897.097 397.972 889.5 406.608 885 414.12C878.777 424.508 881.167 431.62 880 438.12C901.5 454.786 945.2 488.12 948 488.12C951.5 488.12 982 604.62 995.5 616.62C1006.3 626.22 1037.68 618.608 1048.5 612.608C1048.5 612.608 1048.5 583.658 1048.5 565.108ZM1048.5 565.108C1030.45 556.783 1022.33 548.669 1014 530.62" stroke="black" stroke-opacity="0.12"/>
<path d="M949.058 386.021C950.658 382.421 948.391 379.188 947.058 378.021L988.559 334.021C995.392 332.188 1009.96 333.121 1013.56 351.521C1018.06 374.521 992.809 407.21 988.559 407.521C983.809 407.868 980.309 403.868 980.309 403.868C976.975 401.701 975.259 401.221 974.059 402.021C970.859 411.221 977.724 419.188 981.557 422.021C980.39 422.521 974.658 424.721 961.059 423.521C942.058 419.521 937.058 407.354 938.558 400.021C941.391 396.854 947.458 389.621 949.058 386.021Z" fill="#F5A0A3"/>
<path d="M930.31 343.868C932.71 351.068 933.976 365.201 934.31 371.368C934.504 374.368 941.309 379.868 948.309 383.368C955.309 386.868 961.309 378.868 962.809 377.368C964.309 375.868 966.809 373.868 968.309 375.868C969.809 377.868 976.309 375.868 976.809 372.868C977.309 369.868 976.809 361.868 987.309 361.868C994.909 360.668 994.809 352.701 993.809 348.868C996.809 339.868 1000.31 344.868 1007.31 347.368C1016.31 350.582 1019.81 346.368 1019.81 335.868C1019.81 325.56 1009.81 315.868 999.309 308.868C988.809 301.868 971.809 303.368 966.809 304.868C961.809 306.368 948.309 305.368 945.309 309.868C942.309 314.368 938.81 317.368 934.31 321.868C929.81 326.368 927.31 334.868 930.31 343.868Z" fill="#242328"/>
<path d="M1017.5 369.608L986.5 362.608L987.5 359.608C994.5 361.108 1017.5 367.608 1017.5 367.108C1017.5 366.608 1016.5 364.108 1013.5 363.608V362.108C1013.5 362.108 1014.35 362.329 1015 362.608C1018.5 364.108 1019 367.108 1019 368.608C1019 372.108 1017.68 374.262 1016 375.608C1013.5 377.608 1009.5 377.108 1009.5 377.108L1010 376.108C1011.5 376.108 1014.09 375.522 1015.5 374.108C1016.66 372.947 1017 372.108 1017.5 369.608Z" fill="#D9D9D9"/>
<path d="M960.001 764.608C957.354 758.726 959.001 752.608 962.001 748.608C958.334 751.275 945.482 759.961 942.002 773.108C937.502 790.108 954.501 804.108 994.501 803.608C1034.5 803.108 1034.5 776.608 1033 770.608C1031.91 766.242 1013.5 748.608 1016.5 752.108C1018.9 754.908 1016.5 761.608 1015 764.608C995.501 785.608 964.501 774.608 960.001 764.608Z" fill="url(#paint26_linear_923_998)"/>
<path d="M967.201 671.275C964.39 670.108 961.607 669.332 959.5 668.608L1012.5 665.108C1012.83 666.275 1014.1 668.508 1006.5 670.108C997 672.108 996 697.608 996 714.108C996 727.332 1001 743.275 1004 749.608C1011 764.108 997.038 766.608 984 766.608C970.5 766.608 965.5 757.108 969 751.108C971.807 746.295 977.167 735.608 978 729.108V695.246C978 685.588 976.121 674.978 967.201 671.275Z" fill="url(#paint27_linear_923_998)"/>
<path d="M1033.5 628.108C1020.5 630.108 1004.17 626.775 998.001 621.108C997.001 625.608 994.3 636.308 1001.5 641.108C1008.7 645.908 1030.33 639.608 1039 636.108L1102 592.608C1085.33 602.441 1048.88 625.741 1033.5 628.108Z" fill="#3A3C3D"/>
<path d="M1037.61 635.608C1021.61 644.408 1006.61 642.275 1001.11 640.108C985.274 642.775 955.808 652.208 964.608 668.608C994.608 676.208 1017.77 669.441 1025.61 665.108L1060.61 640.108C1073.44 630.275 1099.71 609.608 1102.11 605.608C1104.51 601.608 1103.11 594.608 1102.11 591.608C1087.27 602.608 1053.61 626.808 1037.61 635.608Z" fill="#464A4D"/>
<path d="M1049 636.608C1048.6 642.608 1038.33 638.941 1034.5 637.108L1026.5 640.108C1026.5 640.108 1026.5 640.108 1037 645.108C1052.51 652.491 1056.67 642.775 1057 636.608V602.608L1048.5 606.608C1048.83 614.108 1049.4 630.608 1049 636.608Z" fill="#D9D9D9"/>
<path d="M847.17 473.272C846.092 469.617 846.355 465.696 847.91 462.217L852.491 451.969C858.95 437.522 876.393 431.702 890.233 439.376L915 453.108L953.711 473.684C964.359 479.344 971.976 489.404 974.534 501.188L1003.41 634.2C1005.07 641.806 1003.54 649.757 999.187 656.211V656.211C994.309 663.442 986.507 668.172 977.84 669.15L972.35 669.77C964.633 670.641 956.834 669.144 949.988 665.476L925.089 652.138C911.616 644.92 900.356 634.179 892.511 621.062V621.062C890.207 617.21 888.399 613.083 887.13 608.778L847.17 473.272Z" fill="#777779"/>
<path d="M846.228 472.296C845.444 468.982 846.048 465.492 847.901 462.635V462.635C853.229 454.421 863.516 450.965 872.722 454.295L880.5 457.108L933.247 489.538C942.679 495.337 949.365 504.703 951.783 515.507L975.644 622.083C977.167 628.885 976.265 636.006 973.095 642.214V642.214C968.629 650.96 960.305 657.094 950.628 658.768L950.233 658.837C943.612 659.983 936.799 658.821 930.932 655.547L909.175 643.403C901.124 638.91 893.949 633.002 887.993 625.964V625.964C883.067 620.142 879.585 613.24 877.828 605.819L846.228 472.296Z" fill="#2C2C36"/>
<path d="M1011.69 613.428C1010.66 612.926 1010 611.878 1010 610.729L1010 598.574C1010 597.38 1010.71 596.3 1011.8 595.823L1090.23 561.684C1090.41 561.606 1090.6 561.546 1090.79 561.505L1104.86 558.41C1106.73 557.998 1108.5 559.423 1108.5 561.34L1108.5 572.42C1108.5 573.468 1107.95 574.44 1107.06 574.984L1033.69 619.524C1031.08 621.11 1027.84 621.262 1025.09 619.929L1011.69 613.428Z" fill="#464A4D"/>
<path d="M1011.58 601.039C1009.42 600.002 1009.28 596.967 1011.35 595.748L1089.03 549.973C1089.94 549.437 1091.07 549.419 1092 549.927L1106.9 558.09C1108.94 559.204 1108.99 562.107 1107 563.297L1034.1 606.856C1031.23 608.575 1027.68 608.739 1024.66 607.293L1011.58 601.039Z" fill="#D9D9D9"/>
<path d="M625.861 677L555 717.913L667.258 780L737 738.728L625.861 677Z" fill="#E3E3E3"/>
<path d="M789 571.608C786.783 575.056 783.442 575.143 780.54 574.155C778.873 573.588 779.471 571.608 781.232 571.608C781.998 571.608 782.679 571.162 782.965 570.452C794.775 541.08 817.5 483.976 817.5 481.608C817.5 479.208 804.167 473.275 797.5 470.608L803.607 467.734C805.131 467.017 806.889 466.969 808.432 467.647C811.88 469.16 817.135 471.614 821.5 474.108C827.1 477.308 825.833 483.441 824.5 486.108C814.167 512.275 792.6 566.008 789 571.608Z" fill="#D7D5EA"/>
<path d="M778.02 573.251L765.391 565.839C762.858 564.352 761.774 561.251 762.829 558.51L796.217 471.751C796.861 470.077 798.82 469.339 800.409 470.171L815.208 477.928C817.931 479.355 819.134 482.61 817.995 485.465L783.76 571.284C782.852 573.559 780.132 574.491 778.02 573.251Z" fill="#AEADD5"/>
<path d="M826 591.608C823.783 595.056 820.442 595.143 817.54 594.155C815.873 593.588 816.471 591.608 818.232 591.608C818.998 591.608 819.679 591.162 819.965 590.452C831.775 561.08 854.5 503.976 854.5 501.608C854.5 499.208 841.167 493.275 834.5 490.608L840.607 487.734C842.131 487.017 843.889 486.969 845.432 487.647C848.88 489.16 854.135 491.614 858.5 494.108C864.1 497.308 862.833 503.441 861.5 506.108C851.167 532.275 829.6 586.008 826 591.608Z" fill="#D7D5EA"/>
<path d="M815.02 593.251L802.391 585.839C799.858 584.352 798.774 581.251 799.829 578.51L833.217 491.751C833.861 490.077 835.82 489.339 837.409 490.171L852.208 497.928C854.931 499.355 856.134 502.61 854.995 505.465L820.76 591.284C819.852 593.559 817.132 594.491 815.02 593.251Z" fill="#AEADD5"/>
<path d="M881.212 581.967C887.668 590.45 888.084 600.994 882.141 605.517C867.5 616.659 864.456 607.591 858 599.108C851.543 590.625 845.001 579.608 858.761 574.798C864.704 570.274 874.756 573.484 881.212 581.967Z" fill="#D7D5EA"/>
<ellipse cx="864.21" cy="592.934" rx="13.5229" ry="19.302" transform="rotate(-37.2739 864.21 592.934)" fill="#AEADD5"/>
<path d="M358.162 776.751C350.356 781.436 340.773 780.137 336.758 773.848C326.868 758.357 335.152 756.959 342.958 752.274C350.764 747.589 360.873 743.228 365.027 756.881C369.041 763.17 365.968 772.066 358.162 776.751Z" fill="#D7D5EA"/>
<ellipse cx="13.509" cy="16.4847" rx="13.509" ry="16.4847" transform="matrix(0.538135 0.842858 -0.85741 0.514633 355.332 739.207)" fill="#AEADD5"/>
<path d="M396.594 747.993C388.788 752.679 379.205 751.379 375.19 745.091C365.299 729.599 373.584 728.202 381.39 723.516C389.196 718.831 399.305 714.47 403.458 728.124C407.473 734.412 404.4 743.308 396.594 747.993Z" fill="#D7D5EA"/>
<ellipse cx="13.509" cy="16.4847" rx="13.509" ry="16.4847" transform="matrix(0.538135 0.842858 -0.85741 0.514633 393.764 710.45)" fill="#AEADD5"/>
<path d="M434.225 719.835C426.419 724.52 416.836 723.22 412.821 716.932C402.93 701.441 411.215 700.043 419.021 695.358C426.827 690.672 436.936 686.312 441.089 699.965C445.104 706.253 442.031 715.149 434.225 719.835Z" fill="#D7D5EA"/>
<ellipse cx="13.509" cy="16.4847" rx="13.509" ry="16.4847" transform="matrix(0.538135 0.842858 -0.85741 0.514633 431.396 682.291)" fill="#AEADD5"/>
<path d="M1230 525.108L1220.5 487.608L1274.5 490.608C1273.83 494.941 1270.2 509.808 1269 520.608C1267.8 531.408 1241.67 527.941 1230 525.108Z" fill="#E79999"/>
<path d="M1241.5 532.172C1243.5 528.972 1240 525.608 1236.5 526.108L1238 522.672C1239.17 522.339 1243.21 523.2 1245 527.672C1247 532.672 1244.34 535.691 1240 538.172C1236.5 540.172 1232 538.839 1230 537.672C1230.83 536.506 1232.7 534.372 1233.5 535.172C1234.5 536.172 1239 536.172 1241.5 532.172Z" fill="#3132CF"/>
<path d="M1274.5 490.108C1277.16 488.332 1278 479.275 1278 476.608H1218.5L1220 488.108C1221 489.608 1223.5 490.775 1227.5 492.108C1241 496.608 1267 495.108 1274.5 490.108Z" fill="#CE9CA7"/>
<ellipse cx="1248.5" cy="474.108" rx="30.5" ry="15.5" fill="#FFB6B4"/>
<ellipse cx="1249" cy="473.108" rx="25" ry="11.5" fill="#8F675B"/>
<path d="M1283.92 444.618C1281.44 450.537 1266.46 450.873 1259.92 450.986C1258.17 451.016 1256.35 450.043 1256.09 448.313C1255.94 447.281 1255.95 446.112 1256.34 444.981C1257.4 441.904 1271.33 434.895 1276.96 432.896C1282.59 430.897 1286.97 437.315 1283.92 444.618Z" fill="url(#paint28_linear_923_998)" stroke="black" stroke-opacity="0.14"/>
<path d="M1236.29 431.925C1233.49 437.125 1239.12 464.092 1242.29 476.925H1253.29C1258.45 467.925 1268.29 445.925 1266.29 429.925C1254.79 408.925 1239.79 425.425 1236.29 431.925Z" fill="url(#paint29_linear_923_998)" stroke="black" stroke-opacity="0.14"/>
<path d="M1221.03 448.608C1221.43 455.357 1234.43 460.845 1240.52 463.32C1242.29 464.038 1244.55 463.624 1245.31 461.875C1245.72 460.923 1246.03 459.805 1246.03 458.608C1246.03 455.108 1235.53 443.108 1231.03 439.108C1226.53 435.108 1220.53 440.108 1221.03 448.608Z" fill="url(#paint30_linear_923_998)" stroke="black" stroke-opacity="0.14"/>
<path d="M1204.88 506.608C1203.28 509.408 1204.22 513.441 1204.88 515.108C1204.88 511.608 1220.38 511.108 1226.38 511.108C1232.38 511.108 1234.03 518.343 1236.38 515.108C1241.38 506.608 1242.38 500.108 1241.88 485.108C1241.32 468.108 1231.88 466.287 1222.38 461.108C1211.38 455.108 1213.38 444.608 1213.38 444.608C1208.88 444.608 1205.88 458.608 1211.38 465.108C1216.88 471.608 1222.38 477.608 1221.38 485.108C1219.66 498.003 1206.88 503.108 1204.88 506.608Z" fill="#D9D9D9" fill-opacity="0.43"/>
<ellipse cx="27.287" cy="14.74" rx="27.287" ry="14.74" transform="matrix(0.999896 0.0144157 -0.0184464 0.99983 1191.54 535.608)" fill="#292AA6"/>
<ellipse cx="19.1338" cy="11.2486" rx="19.1338" ry="11.2486" transform="matrix(0.999896 0.0144157 -0.0184464 0.99983 1199.66 535.725)" fill="#DFE6F8"/>
<path d="M1207 538.108C1205.5 533.608 1200.5 532.608 1201.5 519.608C1204 526.608 1217 530.108 1226 529.608C1232.5 529.247 1238.17 520.441 1238.5 516.608C1238.67 517.775 1237.9 521.508 1237.5 527.108C1237.1 532.708 1233.33 537.775 1231 539.608L1230.51 543.522C1230.18 546.17 1229.05 548.775 1226.75 550.115C1219.27 554.456 1209.6 551.81 1207 546.608C1206 544.608 1208.5 542.608 1207 538.108Z" fill="#292AA6"/>
<ellipse cx="1220" cy="520.108" rx="19" ry="10.5" fill="#E2E8FB"/>
<ellipse cx="1220" cy="519.608" rx="16" ry="8" fill="#8F675B"/>
<path d="M1372.5 644L1321.5 673L1374 703.5L1423.5 675L1372.5 644Z" fill="#CACACA"/>
<path d="M1352.5 684.5L1333.5 673.5L1372.5 650.5L1414 673.5L1394 685.5L1372.5 672.5L1352.5 684.5Z" fill="#4B5EA0"/>
<path d="M1321.5 673L1321 681L1374 710L1422.5 681L1423.5 675L1373.5 702.5L1321.5 673Z" fill="#252F51"/>
<path d="M1321 691.5V681L1374 709.5L1422.5 681L1420.5 695L1374 722.5L1321 691.5Z" fill="#4B5EA0"/>
<path d="M1333.5 757.5L1326 694L1374 722L1419 697L1413.5 757.5L1374 780.5L1333.5 757.5Z" fill="#B5AAD1"/>
<path d="M795.755 164.226C795.088 163.897 790.782 167.163 788.713 168.838L819.744 216.89L796.048 217.022L789.004 221.218L822.271 222.696L844.404 240.45L851.046 238.75L850.981 227.11C832.85 206.285 796.422 164.554 795.755 164.226Z" fill="#D9D9D9"/>
<path d="M788.801 185.051L788.709 168.422L844.76 230.054L844.818 240.447L789.095 237.847L789.003 221.218L821.851 222.283L788.801 185.051Z" fill="#AEADD7"/>
<path d="M762.427 226.355L753.725 231.392L766.125 143.604L773.589 140.236L790.684 149.287L762.427 226.355Z" fill="#D9D9D9"/>
<path d="M766.125 143.604L735.782 219.436L753.725 231.392L784.467 152.648L766.125 143.604Z" fill="#AEADD7"/>
<path d="M680.404 129.946L675.023 134.133L676.333 145.35L729.873 204.086L737.335 200.303L737.24 183.259L708.373 150.577L710.02 147.657L729.575 150.459L737.037 146.676L736.97 134.631C736.955 131.87 734.704 129.644 731.942 129.659L680.404 129.946Z" fill="#D9D9D9"/>
<path d="M729.575 150.459L729.51 138.829C729.495 136.068 727.244 133.842 724.483 133.858L675.023 134.133L675.084 144.941L729.873 204.086L729.774 186.21L697.149 150.639C707.958 150.717 729.577 150.791 729.575 150.459Z" fill="#AEADD7"/>
<defs>
<filter id="filter0_f_923_998" x="265.304" y="-132.3" width="1354" height="1110.6" filterUnits="userSpaceOnUse" color-interpolation-filters="sRGB">
<feFlood flood-opacity="0" result="BackgroundImageFix"/>
<feBlend mode="normal" in="SourceGraphic" in2="BackgroundImageFix" result="shape"/>
<feGaussianBlur stdDeviation="68.65" result="effect1_foregroundBlur_923_998"/>
</filter>
<linearGradient id="paint0_linear_923_998" x1="1404.53" y1="936.594" x2="697.26" y2="1198.29" gradientUnits="userSpaceOnUse">
<stop stop-color="#FF6573"/>
<stop offset="1" stop-color="#D650AE"/>
</linearGradient>
<linearGradient id="paint1_linear_923_998" x1="1386.85" y1="284.608" x2="1386.85" y2="562.667" gradientUnits="userSpaceOnUse">
<stop stop-color="#8FC440"/>
<stop offset="1" stop-color="#5D7A2E"/>
</linearGradient>
<linearGradient id="paint2_linear_923_998" x1="1417.1" y1="319.17" x2="1376.93" y2="558.261" gradientUnits="userSpaceOnUse">
<stop stop-color="#8FC440"/>
<stop offset="0.454" stop-color="#5D7A2E"/>
</linearGradient>
<linearGradient id="paint3_linear_923_998" x1="1431.97" y1="459.379" x2="1398.93" y2="562.25" gradientUnits="userSpaceOnUse">
<stop stop-color="#8FC440"/>
<stop offset="1" stop-color="#5D7A2E"/>
</linearGradient>
<linearGradient id="paint4_linear_923_998" x1="1399.75" y1="387.113" x2="1399.75" y2="562.667" gradientUnits="userSpaceOnUse">
<stop stop-color="#8FC440"/>
<stop offset="1" stop-color="#5D7A2E"/>
</linearGradient>
<linearGradient id="paint5_linear_923_998" x1="1355.36" y1="415.978" x2="1376.95" y2="561.554" gradientUnits="userSpaceOnUse">
<stop stop-color="#8FC440"/>
<stop offset="0.364" stop-color="#5D7A2E"/>
</linearGradient>
<linearGradient id="paint6_linear_923_998" x1="1317.03" y1="406.268" x2="1373.49" y2="560.211" gradientUnits="userSpaceOnUse">
<stop stop-color="#8FC440"/>
<stop offset="1" stop-color="#5D7A2E"/>
</linearGradient>
<linearGradient id="paint7_linear_923_998" x1="1400.74" y1="503.299" x2="1379.91" y2="560.096" gradientUnits="userSpaceOnUse">
<stop stop-color="#8FC440"/>
<stop offset="1" stop-color="#5D7A2E"/>
</linearGradient>
<linearGradient id="paint8_linear_923_998" x1="1376.13" y1="443.686" x2="1375.96" y2="562.213" gradientUnits="userSpaceOnUse">
<stop stop-color="#8FC440"/>
<stop offset="1" stop-color="#5D7A2E"/>
</linearGradient>
<linearGradient id="paint9_linear_923_998" x1="1321.01" y1="491.31" x2="1362.49" y2="525.242" gradientUnits="userSpaceOnUse">
<stop stop-color="#8FC440"/>
<stop offset="1" stop-color="#5F7930"/>
</linearGradient>
<linearGradient id="paint10_linear_923_998" x1="28.4945" y1="481.608" x2="28.4945" y2="801.636" gradientUnits="userSpaceOnUse">
<stop stop-color="#8FC440"/>
<stop offset="1" stop-color="#5D7A2E"/>
</linearGradient>
<linearGradient id="paint11_linear_923_998" x1="-6.31975" y1="521.387" x2="39.916" y2="796.564" gradientUnits="userSpaceOnUse">
<stop stop-color="#8FC440"/>
<stop offset="0.454" stop-color="#5D7A2E"/>
</linearGradient>
<linearGradient id="paint12_linear_923_998" x1="-23.4426" y1="682.758" x2="14.5833" y2="801.155" gradientUnits="userSpaceOnUse">
<stop stop-color="#8FC440"/>
<stop offset="1" stop-color="#5D7A2E"/>
</linearGradient>
<linearGradient id="paint13_linear_923_998" x1="13.6406" y1="599.584" x2="13.6406" y2="801.636" gradientUnits="userSpaceOnUse">
<stop stop-color="#8FC440"/>
<stop offset="1" stop-color="#5D7A2E"/>
</linearGradient>
<linearGradient id="paint14_linear_923_998" x1="64.7334" y1="632.807" x2="39.8837" y2="800.354" gradientUnits="userSpaceOnUse">
<stop stop-color="#8FC440"/>
<stop offset="0.364" stop-color="#5D7A2E"/>
</linearGradient>
<linearGradient id="paint15_linear_923_998" x1="108.848" y1="621.631" x2="43.8645" y2="798.809" gradientUnits="userSpaceOnUse">
<stop stop-color="#8FC440"/>
<stop offset="1" stop-color="#5D7A2E"/>
</linearGradient>
<linearGradient id="paint16_linear_923_998" x1="12.5104" y1="733.307" x2="36.4862" y2="798.676" gradientUnits="userSpaceOnUse">
<stop stop-color="#8FC440"/>
<stop offset="1" stop-color="#5D7A2E"/>
</linearGradient>
<linearGradient id="paint17_linear_923_998" x1="40.8298" y1="664.696" x2="41.0311" y2="801.113" gradientUnits="userSpaceOnUse">
<stop stop-color="#8FC440"/>
<stop offset="1" stop-color="#5D7A2E"/>
</linearGradient>
<linearGradient id="paint18_linear_923_998" x1="104.271" y1="719.508" x2="56.5284" y2="758.561" gradientUnits="userSpaceOnUse">
<stop stop-color="#8FC440"/>
<stop offset="1" stop-color="#5F7930"/>
</linearGradient>
<linearGradient id="paint19_linear_923_998" x1="1161" y1="712.589" x2="1217.5" y2="699.589" gradientUnits="userSpaceOnUse">
<stop stop-color="#565EB1"/>
<stop offset="1" stop-color="#878ABF"/>
</linearGradient>
<linearGradient id="paint20_linear_923_998" x1="1051.01" y1="690.257" x2="1107.51" y2="677.257" gradientUnits="userSpaceOnUse">
<stop stop-color="#565EB1"/>
<stop offset="1" stop-color="#878ABF"/>
</linearGradient>
<linearGradient id="paint21_linear_923_998" x1="941" y1="765.108" x2="1018.5" y2="766.108" gradientUnits="userSpaceOnUse">
<stop stop-color="#6771AF"/>
<stop offset="1" stop-color="#BECEE8"/>
</linearGradient>
<linearGradient id="paint22_linear_923_998" x1="944" y1="722.108" x2="1025.5" y2="720.608" gradientUnits="userSpaceOnUse">
<stop offset="0.169216" stop-color="#6E78B4"/>
<stop offset="0.8295" stop-color="#BECEE8"/>
</linearGradient>
<linearGradient id="paint23_linear_923_998" x1="1172.5" y1="416.608" x2="1172.5" y2="457.85" gradientUnits="userSpaceOnUse">
<stop stop-color="#7F7FBD"/>
<stop offset="1" stop-color="#A9ACD7"/>
</linearGradient>
<linearGradient id="paint24_linear_923_998" x1="1161" y1="712.589" x2="1217.5" y2="699.589" gradientUnits="userSpaceOnUse">
<stop stop-color="#565EB1"/>
<stop offset="1" stop-color="#878ABF"/>
</linearGradient>
<linearGradient id="paint25_linear_923_998" x1="1051.01" y1="690.257" x2="1107.51" y2="677.257" gradientUnits="userSpaceOnUse">
<stop stop-color="#565EB1"/>
<stop offset="1" stop-color="#878ABF"/>
</linearGradient>
<linearGradient id="paint26_linear_923_998" x1="941" y1="765.108" x2="1018.5" y2="766.108" gradientUnits="userSpaceOnUse">
<stop stop-color="#6771AF"/>
<stop offset="1" stop-color="#BECEE8"/>
</linearGradient>
<linearGradient id="paint27_linear_923_998" x1="944" y1="722.108" x2="1025.5" y2="720.608" gradientUnits="userSpaceOnUse">
<stop offset="0.169216" stop-color="#6E78B4"/>
<stop offset="0.8295" stop-color="#BECEE8"/>
</linearGradient>
<linearGradient id="paint28_linear_923_998" x1="1282.63" y1="438.772" x2="1258.15" y2="451.286" gradientUnits="userSpaceOnUse">
<stop stop-color="#8FC440"/>
<stop offset="1" stop-color="#5F7930"/>
</linearGradient>
<linearGradient id="paint29_linear_923_998" x1="1251.04" y1="419.608" x2="1251.04" y2="476.925" gradientUnits="userSpaceOnUse">
<stop stop-color="#8FC440"/>
<stop offset="1" stop-color="#5D7A2E"/>
</linearGradient>
<linearGradient id="paint30_linear_923_998" x1="1224.03" y1="443.108" x2="1244.53" y2="462.108" gradientUnits="userSpaceOnUse">
<stop stop-color="#8FC440"/>
<stop offset="1" stop-color="#5F7930"/>
</linearGradient>
</defs>
</svg>
