<svg width="150" height="125" viewBox="0 0 150 125" fill="none" xmlns="http://www.w3.org/2000/svg">
<path d="M87.8432 121.668L9.34961 71.9763L146.791 71.3067L147.095 84.1861L87.8432 121.668Z" fill="#F1DDC4"/>
<path d="M89.2164 107.031C87.055 107.809 85.1101 117.799 87.6915 121.308L89.5816 122.486C88.7835 122.373 88.1622 121.948 87.6915 121.308L3.25891 68.6838L1.15625 52.4104L89.2164 107.031Z" fill="#AC2921"/>
<path d="M88.3778 107.91L2.03493 53.2487L58.8328 20.9791L146.976 68.7401C147.646 69.1032 147.68 70.0522 147.037 70.4622L88.3778 107.91Z" fill="#D1362D"/>
<path d="M83.3715 89.2435L15.4316 46.2327L134.393 45.6531L134.657 56.8008L83.3715 89.2435Z" fill="#F1DDC4"/>
<path d="M83.6497 89.9748C81.9162 88.8557 82.3537 77.3688 84.562 76.5743L8.3418 29.2975L10.1617 43.3829L83.6497 89.9748Z" fill="#9921AC"/>
<path d="M84.2118 77.0807L9.10276 30.0231L58.2639 2.09223L134.355 43.3227C135.025 43.6858 135.059 44.635 134.416 45.0449L84.2118 77.0807Z" fill="#D12DC0"/>
</svg>
