<svg width="143" height="225" viewBox="0 0 143 225" fill="none" xmlns="http://www.w3.org/2000/svg">
<path d="M20.9368 203.716L5.16211 141.447L116.694 147.643C115.317 156.594 107.813 187.299 105.334 209.606C103.299 227.919 66.5515 226.371 40.1268 221.991C30.6208 220.416 23.3031 213.056 20.9368 203.716Z" fill="#E79999"/>
<path d="M116.696 146.611C122.198 142.943 123.925 124.236 123.925 118.728H1.0332L4.13131 142.48C6.19671 145.578 11.3602 147.988 19.6218 150.742C47.5047 160.036 101.205 156.938 116.696 146.611Z" fill="#CE9CA7"/>
<ellipse cx="62.9947" cy="113.564" rx="62.9947" ry="32.0137" fill="#FFB6B4"/>
<ellipse cx="64.0276" cy="111.499" rx="51.635" ry="23.7521" fill="#8F675B"/>
<path d="M136.15 52.6561C130.585 65.9613 94.4103 65.6066 83.4383 65.867C81.6896 65.9086 79.9192 64.9996 79.383 63.3346C78.5323 60.6927 77.9674 56.9573 79.1864 53.4045C81.3667 47.05 110.15 32.5743 121.774 28.4454C133.398 24.3164 142.46 37.572 136.15 52.6561Z" fill="url(#paint0_linear_871_2972)" stroke="black" stroke-opacity="0.14"/>
<path d="M37.7676 26.4397C31.9844 37.1797 43.6195 92.8767 50.16 119.383H72.8801C83.5514 100.794 103.861 55.3553 99.7304 22.3089C75.9782 -21.0646 44.9965 13.0146 37.7676 26.4397Z" fill="url(#paint1_linear_871_2972)" stroke="black" stroke-opacity="0.14"/>
<path d="M6.25587 60.8966C7.1556 76.192 39.4105 88.3518 49.7508 92.5956C51.5147 93.3195 53.7122 92.9701 54.7523 91.3721C56.308 88.982 57.8909 85.472 57.8909 81.5505C57.8909 74.3216 36.2042 49.5368 26.9099 41.2752C17.6156 33.0136 5.22317 43.3406 6.25587 60.8966Z" fill="url(#paint2_linear_871_2972)" stroke="black" stroke-opacity="0.14"/>
<ellipse cx="55.7655" cy="37.9543" rx="8.26161" ry="11.3597" fill="#D9D9D9"/>
<circle cx="56.7973" cy="42.0851" r="7.2289" fill="#424242"/>
<ellipse cx="8.26161" cy="11.3597" rx="8.26161" ry="11.3597" transform="matrix(-1 0 0 1 86.7461 26.5946)" fill="#D9D9D9"/>
<circle cx="7.2289" cy="7.2289" r="7.2289" transform="matrix(-1 0 0 1 84.6816 34.8562)" fill="#424242"/>
<path d="M74.3543 61.4154C74.3543 65.4078 71.1178 68.6443 67.1254 68.6443C63.133 68.6443 59.8965 65.4078 59.8965 61.4154C59.8965 57.423 63.133 61.4154 67.1254 61.4154C71.1178 61.4154 74.3543 57.423 74.3543 61.4154Z" fill="#E8949E"/>
<defs>
<linearGradient id="paint0_linear_871_2972" x1="133.488" y1="40.5816" x2="82.9253" y2="66.428" gradientUnits="userSpaceOnUse">
<stop stop-color="#8FC440"/>
<stop offset="1" stop-color="#5F7930"/>
</linearGradient>
<linearGradient id="paint1_linear_871_2972" x1="68.2399" y1="1" x2="68.2399" y2="119.383" gradientUnits="userSpaceOnUse">
<stop stop-color="#8FC440"/>
<stop offset="1" stop-color="#5D7A2E"/>
</linearGradient>
<linearGradient id="paint2_linear_871_2972" x1="12.452" y1="49.5368" x2="54.7928" y2="88.7794" gradientUnits="userSpaceOnUse">
<stop stop-color="#8FC440"/>
<stop offset="1" stop-color="#5F7930"/>
</linearGradient>
</defs>
</svg>
