<svg width="35" height="27" viewBox="0 0 35 27" fill="none" xmlns="http://www.w3.org/2000/svg">
<path d="M29.6144 2.65039C27.3977 1.65952 24.9976 0.940348 22.4976 0.524823C22.4756 0.524151 22.4538 0.528095 22.4337 0.536379C22.4135 0.544663 22.3955 0.557085 22.3809 0.572769C22.0809 1.10017 21.7309 1.78738 21.4975 2.31477C18.8458 1.93121 16.149 1.93121 13.4973 2.31477C13.264 1.7714 12.914 1.10017 12.5973 0.572769C12.5806 0.540805 12.5306 0.524823 12.4806 0.524823C9.98055 0.940348 7.59715 1.65952 5.36375 2.65039C5.34709 2.65039 5.33042 2.66637 5.31375 2.68235C0.780295 9.18691 -0.469739 15.5157 0.146944 21.7805C0.146944 21.8125 0.163611 21.8444 0.196946 21.8604C3.19703 23.97 6.08044 25.2485 8.93052 26.0956C8.98052 26.1115 9.03052 26.0956 9.04719 26.0636C9.71387 25.1846 10.3139 24.2577 10.8306 23.2828C10.8639 23.2189 10.8306 23.1549 10.7639 23.1389C9.81388 22.7873 8.91385 22.3718 8.03049 21.8924C7.96383 21.8604 7.96383 21.7645 8.01383 21.7166C8.19717 21.5887 8.3805 21.4449 8.56384 21.317C8.59718 21.2851 8.64718 21.2851 8.68051 21.301C14.414 23.8102 20.5975 23.8102 26.2643 21.301C26.2977 21.2851 26.3477 21.2851 26.381 21.317C26.5643 21.4609 26.7477 21.5887 26.931 21.7326C26.9977 21.7805 26.9977 21.8764 26.9143 21.9084C26.0477 22.4038 25.131 22.8033 24.1809 23.1549C24.1143 23.1709 24.0976 23.2508 24.1143 23.2988C24.6476 24.2736 25.2476 25.2006 25.8977 26.0796C25.9477 26.0956 25.9977 26.1115 26.0477 26.0956C28.9144 25.2485 31.7978 23.97 34.7979 21.8604C34.8312 21.8444 34.8479 21.8125 34.8479 21.7805C35.5812 14.5408 33.6312 8.25997 29.6811 2.68235C29.6644 2.66637 29.6478 2.65039 29.6144 2.65039ZM11.6973 17.9609C9.98055 17.9609 8.54718 16.4426 8.54718 14.5727C8.54718 12.7029 9.94721 11.1846 11.6973 11.1846C13.464 11.1846 14.864 12.7189 14.8473 14.5727C14.8473 16.4426 13.4473 17.9609 11.6973 17.9609ZM23.3142 17.9609C21.5975 17.9609 20.1642 16.4426 20.1642 14.5727C20.1642 12.7029 21.5642 11.1846 23.3142 11.1846C25.081 11.1846 26.481 12.7189 26.4643 14.5727C26.4643 16.4426 25.081 17.9609 23.3142 17.9609Z" fill="#FFB636"/>
</svg>
