<svg width="32" height="30" viewBox="0 0 32 30" fill="none" xmlns="http://www.w3.org/2000/svg">
<path d="M15.5171 0.577423C13.4794 0.577423 11.4616 0.956824 9.57899 1.69396C7.69636 2.43111 5.98576 3.51155 4.54486 4.87361C1.63484 7.62441 0 11.3553 0 15.2455C0 21.7288 4.45342 27.2293 10.6137 29.1802C11.3896 29.2975 11.6379 28.8428 11.6379 28.4468V25.9679C7.33961 26.848 6.4241 24.0024 6.4241 24.0024C5.71031 22.3009 4.70169 21.8462 4.70169 21.8462C3.28963 20.9367 4.81031 20.9661 4.81031 20.9661C6.36203 21.0687 7.18444 22.4769 7.18444 22.4769C8.53443 24.7064 10.8154 24.0464 11.6999 23.6943C11.8396 22.7409 12.243 22.0955 12.6775 21.7288C9.2327 21.3621 5.6172 20.1006 5.6172 14.5121C5.6172 12.8839 6.20686 11.5785 7.21547 10.5371C7.0603 10.1704 6.5172 8.64487 7.37064 6.66468C7.37064 6.66468 8.67408 6.26864 11.6379 8.16082C12.8637 7.83813 14.1982 7.67678 15.5171 7.67678C16.8361 7.67678 18.1706 7.83813 19.3964 8.16082C22.3602 6.26864 23.6636 6.66468 23.6636 6.66468C24.5171 8.64487 23.974 10.1704 23.8188 10.5371C24.8274 11.5785 25.4171 12.8839 25.4171 14.5121C25.4171 20.1153 21.7861 21.3474 18.3257 21.7141C18.8844 22.1688 19.3964 23.0636 19.3964 24.4277V28.4468C19.3964 28.8428 19.6447 29.3122 20.4361 29.1802C26.5964 27.2147 31.0343 21.7288 31.0343 15.2455C31.0343 13.3193 30.6329 11.4119 29.8531 9.63228C29.0733 7.85266 27.9303 6.23566 26.4894 4.87361C25.0485 3.51155 23.3379 2.43111 21.4553 1.69396C19.5727 0.956824 17.5549 0.577423 15.5171 0.577423Z" fill="#FFB636"/>
</svg>
