<svg width="31" height="30" viewBox="0 0 31 30" fill="none" xmlns="http://www.w3.org/2000/svg">
<path d="M27.5556 0.630127C28.4691 0.630127 29.3452 0.973902 29.9911 1.58583C30.6371 2.19775 31 3.0277 31 3.89309V26.7338C31 27.5992 30.6371 28.4292 29.9911 29.0411C29.3452 29.653 28.4691 29.9968 27.5556 29.9968H3.44444C2.53092 29.9968 1.65481 29.653 1.00885 29.0411C0.362896 28.4292 0 27.5992 0 26.7338V3.89309C0 3.0277 0.362896 2.19775 1.00885 1.58583C1.65481 0.973902 2.53092 0.630127 3.44444 0.630127H27.5556ZM26.6944 25.9181V17.2712C26.6944 15.8607 26.1029 14.5078 25.05 13.5104C23.9971 12.513 22.569 11.9526 21.08 11.9526C19.6161 11.9526 17.9111 12.801 17.0844 14.0735V12.2626H12.2794V25.9181H17.0844V17.8749C17.0844 16.6187 18.1522 15.5908 19.4783 15.5908C20.1178 15.5908 20.7311 15.8315 21.1832 16.2598C21.6354 16.6882 21.8894 17.2691 21.8894 17.8749V25.9181H26.6944ZM6.68222 9.70117C7.44958 9.70117 8.18551 9.4124 8.72812 8.89838C9.27072 8.38436 9.57556 7.68721 9.57556 6.96028C9.57556 5.443 8.28389 4.20307 6.68222 4.20307C5.9103 4.20307 5.16998 4.49356 4.62415 5.01064C4.07831 5.52772 3.77167 6.22902 3.77167 6.96028C3.77167 8.47756 5.08056 9.70117 6.68222 9.70117ZM9.07611 25.9181V12.2626H4.30556V25.9181H9.07611Z" fill="#FFB636"/>
</svg>
