<svg width="142" height="48" viewBox="0 0 142 48" fill="none" xmlns="http://www.w3.org/2000/svg">
<rect width="142" height="47.9957" rx="23.9978" fill="white"/>
<ellipse cx="24.2279" cy="24.23" rx="23.2279" ry="23.23" fill="#2B2B2B"/>
<path d="M11.2195 30.2178C9.8656 30.2178 8.87012 30.1548 8.23301 30.0287C7.5959 29.9025 7.27734 29.7554 7.27734 29.5873L8.47192 26.8443C8.92984 26.9283 10.0647 27.0124 11.8765 27.0965C13.7082 27.1595 16.2168 27.1911 19.4023 27.1911H19.9697C20.8259 27.1911 21.4331 27.0334 21.7915 26.7181C22.1498 26.3818 22.329 25.8248 22.329 25.0471V24.4166C22.329 23.6809 22.1797 23.1554 21.8811 22.8401C21.6023 22.5248 20.9652 22.3672 19.9697 22.3672H13.0412C11.0303 22.3672 9.56695 21.9783 8.65111 21.2006C7.73527 20.4019 7.27734 19.1092 7.27734 17.3226V16.8181C7.27734 15.8933 7.43662 15.042 7.75518 14.2643C8.09364 13.4866 8.66106 12.8665 9.45745 12.4041C10.2538 11.9207 11.3489 11.679 12.7425 11.679H20.8657C22.2195 11.679 23.3146 11.7525 24.1508 11.8997C24.987 12.0468 25.4051 12.2044 25.4051 12.3726L24.8078 15.021C24.2901 14.9579 23.1155 14.8949 21.2838 14.8318C19.4521 14.7477 16.9932 14.7057 13.9073 14.7057L13.5787 14.6742C12.6629 14.6742 12.0457 14.8739 11.7271 15.2732C11.4086 15.6516 11.2394 16.135 11.2195 16.7235V17.2595C11.2195 17.9532 11.3986 18.4786 11.757 18.836C12.1353 19.1723 12.7525 19.3404 13.6086 19.3404H20.2385C21.5127 19.3404 22.5978 19.4771 23.4937 19.7503C24.3897 20.0236 25.0766 20.528 25.5544 21.2637C26.0322 21.9783 26.2711 23.0398 26.2711 24.4481V24.9525C26.2711 26.529 25.8829 27.8006 25.1064 28.7675C24.3499 29.7344 23.0259 30.2178 21.1345 30.2178H11.2195Z" fill="#F0F0F0"/>
<path d="M22.3589 39.6764V23.6599L22.0603 21.106H35.2902C36.5644 21.106 37.5599 21.2847 38.2767 21.642C39.0133 21.9994 39.5509 22.4723 39.8893 23.0608C40.2477 23.6283 40.4767 24.2379 40.5762 24.8895C40.6758 25.5411 40.7255 26.1611 40.7255 26.7497V28.6099C40.7255 29.0933 40.6559 29.6398 40.5165 30.2494C40.3771 30.8379 40.1183 31.4159 39.74 31.9834C39.3617 32.5299 38.8142 32.9924 38.0975 33.3707C37.3807 33.728 36.445 33.9067 35.2902 33.9067H32.244C30.9897 33.9067 29.8151 33.8752 28.72 33.8121C27.6449 33.749 26.8386 33.6965 26.301 33.6545V39.6764H22.3589ZM26.301 30.8799H34.4241C35.3201 30.8799 35.9373 30.6487 36.2757 30.1863C36.6142 29.7239 36.7834 29.1669 36.7834 28.5153V26.529C36.7834 25.8564 36.6142 25.2888 36.2757 24.8264C35.9373 24.364 35.33 24.1328 34.454 24.1328H26.301V30.8799Z" fill="#F0F0F0"/>
<path d="M50.791 28.9574L55.6081 19.0552H58.8469L63.6476 28.9574H61.1157L60.1457 26.8187H54.26L53.1913 28.9574H50.791ZM54.8518 25.1683H59.5374L57.2851 20.5708H57.1206L54.8518 25.1683Z" fill="#2B2B2B"/>
<path d="M65.1309 28.9574V20.4024L64.9665 19.0552H67.334L72.9238 25.0504L73.565 25.9598H73.7458V19.0552H75.916V28.9574H73.828L68.1067 22.8611L67.4655 22.0696H67.3011V28.9574H65.1309Z" fill="#2B2B2B"/>
<path d="M81.8539 28.9574L81.8374 20.655H77.5629V19.0383H88.315V20.655H84.024V28.9574H81.8539Z" fill="#2B2B2B"/>
<path d="M92.8088 28.9574C92.0416 28.9574 91.4388 28.8452 91.0004 28.6206C90.5619 28.3961 90.2496 28.0593 90.0632 27.6102C89.8879 27.1611 89.8002 26.6054 89.8002 25.943V22.0528C89.8002 21.4016 89.8879 20.8571 90.0632 20.4193C90.2386 19.9702 90.5455 19.6334 90.9839 19.4088C91.4223 19.1731 92.0306 19.0552 92.8088 19.0552H97.6095C98.3767 19.0552 98.9741 19.1731 99.4015 19.4088C99.8399 19.6334 100.147 19.9702 100.322 20.4193C100.509 20.8571 100.602 21.4016 100.602 22.0528V25.943C100.602 26.931 100.388 27.6832 99.9605 28.1996C99.533 28.7048 98.7494 28.9574 97.6095 28.9574H92.8088ZM93.2856 27.3407H97.1491C97.5547 27.3407 97.8671 27.2341 98.0863 27.0208C98.3164 26.8075 98.4315 26.5156 98.4315 26.1451V21.8507C98.4315 21.5251 98.3164 21.2501 98.0863 21.0255C97.8561 20.7898 97.5437 20.6719 97.1491 20.6719H93.2856C92.891 20.6719 92.5732 20.7785 92.332 20.9918C92.0909 21.2052 91.9704 21.4914 91.9704 21.8507V26.1451C91.9704 26.5268 92.0854 26.8243 92.3156 27.0376C92.5567 27.2397 92.8801 27.3407 93.2856 27.3407Z" fill="#2B2B2B"/>
<path d="M103.066 28.9574V19.0552H105.236V28.9574H103.066Z" fill="#2B2B2B"/>
<path d="M108.031 28.9574V20.4024L107.866 19.0552H110.234L115.823 25.0504L116.465 25.9598H116.646V19.0552H118.816V28.9574H116.728L111.006 22.8611L110.365 22.0696H110.201V28.9574H108.031Z" fill="#2B2B2B"/>
<path d="M121.449 28.9574V19.0552H131.675V20.6719H123.619V22.9959H129.768V24.6631H123.619V27.3407H131.741L132.398 28.7722C132.398 28.8171 132.25 28.862 131.955 28.9069C131.659 28.9406 131.149 28.9574 130.426 28.9574H121.449Z" fill="#2B2B2B"/>
</svg>
