<svg width="945" height="320" viewBox="0 0 945 320" fill="none" xmlns="http://www.w3.org/2000/svg">
<rect width="945" height="319.437" rx="150" fill="#2B2B2B"/>
<ellipse cx="161.234" cy="161.249" rx="154.58" ry="154.594" fill="white"/>
<path d="M74.6641 201.115C65.6543 201.115 59.0295 200.695 54.7896 199.856C50.5496 199.017 48.4297 198.037 48.4297 196.918L56.3795 178.662C59.427 179.222 66.9793 179.781 79.0366 180.341C91.2263 180.761 107.921 180.97 129.121 180.97H132.897C138.594 180.97 142.635 179.921 145.02 177.823C147.405 175.585 148.598 171.877 148.598 166.701V162.505C148.598 157.608 147.604 154.111 145.616 152.013C143.761 149.914 139.522 148.865 132.897 148.865H86.7876C73.4054 148.865 63.6669 146.277 57.572 141.101C51.4771 135.785 48.4297 127.181 48.4297 115.291V111.933C48.4297 105.778 49.4897 100.112 51.6096 94.936C53.8621 89.76 57.6382 85.6331 62.9381 82.5554C68.238 79.3379 75.5254 77.7291 84.8002 77.7291H138.859C147.869 77.7291 155.156 78.2188 160.721 79.198C166.286 80.1773 169.068 81.2265 169.068 82.3456L165.094 99.9722C161.649 99.5525 153.831 99.1328 141.642 98.7131C129.452 98.1536 113.088 97.8738 92.5513 97.8738L90.3651 97.6639C84.2702 97.6639 80.1628 98.9929 78.0428 101.651C75.9229 104.169 74.7966 107.387 74.6641 111.304V114.871C74.6641 119.487 75.8566 122.985 78.2416 125.363C80.759 127.601 84.8664 128.72 90.5638 128.72H134.685C143.165 128.72 150.386 129.63 156.349 131.448C162.311 133.267 166.882 136.624 170.062 141.521C173.242 146.277 174.832 153.342 174.832 162.714V166.072C174.832 176.564 172.248 185.027 167.081 191.462C162.046 197.898 153.235 201.115 140.648 201.115H74.6641Z" fill="#2B2B2B"/>
<path d="M148.796 264.067V157.468L146.809 140.471H234.853C243.333 140.471 249.958 141.66 254.728 144.039C259.63 146.417 263.208 149.564 265.46 153.481C267.845 157.259 269.369 161.315 270.031 165.652C270.694 169.989 271.025 174.116 271.025 178.033V190.413C271.025 193.631 270.561 197.268 269.634 201.325C268.706 205.242 266.984 209.089 264.466 212.866C261.949 216.503 258.305 219.581 253.535 222.099C248.766 224.477 242.538 225.666 234.853 225.666H214.581C206.234 225.666 198.417 225.457 191.129 225.037C183.974 224.617 178.608 224.267 175.031 223.988V264.067H148.796ZM175.031 205.522H229.09C235.052 205.522 239.16 203.983 241.412 200.905C243.664 197.828 244.791 194.12 244.791 189.784V176.564C244.791 172.087 243.664 168.31 241.412 165.232C239.16 162.155 235.118 160.616 229.288 160.616H175.031V205.522Z" fill="#2B2B2B"/>
<path d="M338.01 192.727L370.067 126.822H391.621L423.569 192.727H406.72L400.265 178.493H361.095L353.984 192.727H338.01ZM365.034 167.508H396.216L381.227 136.91H380.133L365.034 167.508Z" fill="white"/>
<path d="M433.441 192.727V135.789L432.347 126.822H448.102L485.302 166.724L489.569 172.776H490.772V126.822H505.215V192.727H491.319L453.244 152.153L448.977 146.885H447.883V192.727H433.441Z" fill="white"/>
<path d="M544.731 192.727L544.621 137.47H516.175V126.71H587.729V137.47H559.173V192.727H544.731Z" fill="white"/>
<path d="M617.635 192.727C612.53 192.727 608.518 191.98 605.6 190.485C602.683 188.991 600.604 186.749 599.364 183.76C598.197 180.772 597.613 177.073 597.613 172.664V146.773C597.613 142.439 598.197 138.815 599.364 135.901C600.531 132.912 602.573 130.67 605.491 129.176C608.408 127.607 612.457 126.822 617.635 126.822H649.583C654.689 126.822 658.665 127.607 661.509 129.176C664.427 130.67 666.469 132.912 667.636 135.901C668.876 138.815 669.496 142.439 669.496 146.773V172.664C669.496 179.24 668.074 184.246 665.229 187.683C662.384 191.046 657.169 192.727 649.583 192.727H617.635ZM620.808 181.967H646.52C649.219 181.967 651.297 181.257 652.756 179.838C654.288 178.418 655.054 176.475 655.054 174.009V145.428C655.054 143.261 654.288 141.43 652.756 139.936C651.225 138.367 649.146 137.582 646.52 137.582H620.808C618.182 137.582 616.067 138.292 614.462 139.712C612.858 141.132 612.055 143.037 612.055 145.428V174.009C612.055 176.55 612.821 178.53 614.353 179.95C615.958 181.295 618.109 181.967 620.808 181.967Z" fill="white"/>
<path d="M685.894 192.727V126.822H700.336V192.727H685.894Z" fill="white"/>
<path d="M718.935 192.727V135.789L717.841 126.822H733.597L770.796 166.724L775.063 172.776H776.267V126.822H790.709V192.727H776.814L738.739 152.153L734.472 146.885H733.378V192.727H718.935Z" fill="white"/>
<path d="M808.234 192.727V126.822H876.287V137.582H822.676V153.05H863.596V164.146H822.676V181.967H876.725L881.101 191.494C881.101 191.793 880.117 192.092 878.147 192.391C876.178 192.615 872.786 192.727 867.972 192.727H808.234Z" fill="white"/>
</svg>
