<svg width="140" height="46" viewBox="0 0 140 46" fill="none" xmlns="http://www.w3.org/2000/svg">
<rect width="140" height="45.8015" rx="22.9008" fill="#E166AC"/>
<circle cx="23" cy="23" r="20" fill="#202020"/>
<path d="M48 27.4656L52.7492 18.0161H55.9424L60.6755 27.4656H58.1793L57.2229 25.4247H51.4201L50.3665 27.4656H48ZM52.0036 23.8497H56.6232L54.4026 19.4624H54.2405L52.0036 23.8497Z" fill="#202020"/>
<path d="M62.138 27.4656V19.3017L61.9759 18.0161H64.31L69.821 23.7372L70.4532 24.6051H70.6315V18.0161H72.7711V27.4656H70.7125L65.0718 21.6481L64.4396 20.8927H64.2775V27.4656H62.138Z" fill="#202020"/>
<path d="M78.6253 27.4656L78.6091 19.5428H74.3948V18H84.9955V19.5428H80.7649V27.4656H78.6253Z" fill="#202020"/>
<path d="M89.426 27.4656C88.6696 27.4656 88.0753 27.3585 87.643 27.1442C87.2108 26.93 86.9028 26.6085 86.7191 26.18C86.5462 25.7514 86.4597 25.2211 86.4597 24.589V20.8767C86.4597 20.2553 86.5462 19.7356 86.7191 19.3178C86.892 18.8892 87.1946 18.5678 87.6268 18.3536C88.059 18.1286 88.6588 18.0161 89.426 18.0161H94.159C94.9155 18.0161 95.5044 18.1286 95.9258 18.3536C96.3581 18.5678 96.6606 18.8892 96.8335 19.3178C97.0172 19.7356 97.1091 20.2553 97.1091 20.8767V24.589C97.1091 25.5318 96.8984 26.2496 96.4769 26.7425C96.0555 27.2246 95.2829 27.4656 94.159 27.4656H89.426ZM89.8961 25.9229H93.7052C94.105 25.9229 94.413 25.8211 94.6291 25.6175C94.856 25.414 94.9695 25.1354 94.9695 24.7818V20.6838C94.9695 20.3731 94.856 20.1106 94.6291 19.8963C94.4022 19.6714 94.0942 19.5589 93.7052 19.5589H89.8961C89.507 19.5589 89.1937 19.6606 88.9559 19.8642C88.7182 20.0678 88.5993 20.341 88.5993 20.6838V24.7818C88.5993 25.1461 88.7128 25.43 88.9397 25.6336C89.1775 25.8264 89.4962 25.9229 89.8961 25.9229Z" fill="#202020"/>
<path d="M99.5384 27.4656V18.0161H101.678V27.4656H99.5384Z" fill="#202020"/>
<path d="M104.433 27.4656V19.3017L104.271 18.0161H106.605L112.117 23.7372L112.749 24.6051H112.927V18.0161H115.067V27.4656H113.008L107.367 21.6481L106.735 20.8927H106.573V27.4656H104.433Z" fill="#202020"/>
<path d="M117.663 27.4656V18.0161H127.745V19.5589H119.802V21.7766H125.865V23.3676H119.802V25.9229H127.81L128.458 27.2889C128.458 27.3317 128.312 27.3746 128.02 27.4174C127.729 27.4496 127.226 27.4656 126.513 27.4656H117.663Z" fill="#202020"/>
<path d="M13.0643 26.9054C12.0119 26.9054 11.2381 26.8581 10.7429 26.7635C10.2476 26.6689 10 26.5586 10 26.4324L10.9286 24.375C11.2845 24.4381 12.1667 24.5011 13.575 24.5642C14.9988 24.6115 16.9488 24.6351 19.425 24.6351H19.8661C20.5315 24.6351 21.0036 24.5169 21.2821 24.2804C21.5607 24.0282 21.7 23.6104 21.7 23.027V22.5541C21.7 22.0023 21.5839 21.6081 21.3518 21.3716C21.1351 21.1351 20.6399 21.0169 19.8661 21.0169H14.4804C12.9173 21.0169 11.7798 20.7252 11.0679 20.1419C10.356 19.5428 10 18.5732 10 17.2331V16.8547C10 16.161 10.1238 15.5225 10.3714 14.9392C10.6345 14.3559 11.0756 13.8908 11.6946 13.5439C12.3137 13.1813 13.1649 13 14.2482 13H20.5625C21.6149 13 22.4661 13.0552 23.1161 13.1655C23.7661 13.2759 24.0911 13.3941 24.0911 13.5203L23.6268 15.5068C23.2244 15.4595 22.3113 15.4122 20.8875 15.3649C19.4637 15.3018 17.5524 15.2703 15.1536 15.2703L14.8982 15.2466C14.1863 15.2466 13.7065 15.3964 13.4589 15.6959C13.2113 15.9797 13.0798 16.3423 13.0643 16.7838V17.1858C13.0643 17.7061 13.2036 18.1002 13.4821 18.3682C13.7762 18.6205 14.256 18.7466 14.9214 18.7466H20.075C21.0655 18.7466 21.9089 18.8491 22.6054 19.0541C23.3018 19.259 23.8357 19.6374 24.2071 20.1892C24.5786 20.7252 24.7643 21.5214 24.7643 22.5777V22.9561C24.7643 24.1385 24.4625 25.0923 23.8589 25.8176C23.2708 26.5428 22.2417 26.9054 20.7714 26.9054H13.0643Z" fill="#FFB636"/>
<path d="M21.7232 34V21.9865L21.4911 20.0709H31.775C32.7655 20.0709 33.5393 20.205 34.0964 20.473C34.669 20.741 35.0869 21.0957 35.35 21.5372C35.6286 21.9628 35.8065 22.42 35.8839 22.9088C35.9613 23.3975 36 23.8626 36 24.3041V25.6993C36 26.0619 35.9458 26.4718 35.8375 26.9291C35.7292 27.3705 35.528 27.8041 35.2339 28.2297C34.9399 28.6396 34.5143 28.9865 33.9571 29.2703C33.4 29.5383 32.6726 29.6723 31.775 29.6723H29.4071C28.4321 29.6723 27.519 29.6486 26.6679 29.6014C25.8321 29.5541 25.2054 29.5146 24.7875 29.4831V34H21.7232ZM24.7875 27.402H31.1018C31.7982 27.402 32.278 27.2286 32.5411 26.8818C32.8042 26.5349 32.9357 26.1171 32.9357 25.6284V24.1385C32.9357 23.634 32.8042 23.2083 32.5411 22.8615C32.278 22.5146 31.806 22.3412 31.125 22.3412H24.7875V27.402Z" fill="#FFB636"/>
</svg>
