<svg width="551" height="701" viewBox="0 0 551 701" fill="none" xmlns="http://www.w3.org/2000/svg">
<path d="M203.085 281.246L318.273 257.83L319.21 255.257L280.496 206.207L171.614 227.328L170.302 230.932L203.085 281.246Z" fill="#736D99"/>
<path d="M281.399 205.95L171.64 227.258L205.111 277.899L319.412 255.328L281.399 205.95Z" fill="#4F4F4F"/>
<path d="M273.632 218.608L284.47 216.405L284.558 216.163L280.915 211.548L270.671 213.535L270.548 213.874L273.632 218.608Z" fill="#736D99"/>
<path d="M281.004 211.524L270.677 213.529L273.826 218.293L284.58 216.17L281.004 211.524Z" fill="#4F4F4F"/>
<path d="M281.004 211.524L270.677 213.529L273.826 218.293L284.58 216.17L281.004 211.524Z" fill="white"/>
<path d="M278.31 224.972L289.148 222.769L289.236 222.527L285.593 217.912L275.349 219.899L275.226 220.238L278.31 224.972Z" fill="#736D99"/>
<path d="M285.681 217.888L275.355 219.893L278.504 224.657L289.258 222.534L285.681 217.888Z" fill="#4F4F4F"/>
<path d="M285.681 217.888L275.355 219.893L278.504 224.657L289.258 222.534L285.681 217.888Z" fill="white"/>
<path d="M282.988 231.339L293.825 229.136L293.913 228.894L290.271 224.279L280.027 226.267L279.903 226.606L282.988 231.339Z" fill="#736D99"/>
<path d="M290.359 224.255L280.032 226.26L283.182 231.025L293.936 228.901L290.359 224.255Z" fill="#4F4F4F"/>
<path d="M290.359 224.255L280.032 226.26L283.182 231.025L293.936 228.901L290.359 224.255Z" fill="white"/>
<path d="M287.663 237.703L298.501 235.5L298.589 235.258L294.947 230.643L284.703 232.63L284.579 232.969L287.663 237.703Z" fill="#736D99"/>
<path d="M295.035 230.619L284.708 232.624L287.857 237.388L298.611 235.265L295.035 230.619Z" fill="#4F4F4F"/>
<path d="M295.035 230.619L284.708 232.624L287.857 237.388L298.611 235.265L295.035 230.619Z" fill="white"/>
<path d="M293.003 245.473L303.841 243.27L303.929 243.028L300.287 238.413L290.042 240.4L289.919 240.739L293.003 245.473Z" fill="#736D99"/>
<path d="M300.375 238.389L290.048 240.394L293.197 245.158L303.951 243.035L300.375 238.389Z" fill="#4F4F4F"/>
<path d="M300.375 238.389L290.048 240.394L293.197 245.158L303.951 243.035L300.375 238.389Z" fill="white"/>
<path d="M298.345 253.244L309.183 251.041L309.271 250.799L305.628 246.184L295.384 248.171L295.261 248.51L298.345 253.244Z" fill="#736D99"/>
<path d="M305.717 246.16L295.39 248.165L298.539 252.929L309.293 250.806L305.717 246.16Z" fill="#4F4F4F"/>
<path d="M305.717 246.16L295.39 248.165L298.539 252.929L309.293 250.806L305.717 246.16Z" fill="white"/>
<path d="M262.109 221.418L272.946 219.215L273.034 218.972L269.392 214.358L259.148 216.345L259.024 216.684L262.109 221.418Z" fill="#736D99"/>
<path d="M269.48 214.334L259.154 216.338L262.303 221.103L273.057 218.979L269.48 214.334Z" fill="#4F4F4F"/>
<path d="M269.48 214.334L259.154 216.338L262.303 221.103L273.057 218.979L269.48 214.334Z" fill="white"/>
<path d="M266.788 227.785L277.626 225.581L277.714 225.339L274.072 220.724L263.828 222.712L263.704 223.051L266.788 227.785Z" fill="#736D99"/>
<path d="M274.16 220.7L263.833 222.705L266.982 227.47L277.736 225.346L274.16 220.7Z" fill="#4F4F4F"/>
<path d="M274.16 220.7L263.833 222.705L266.982 227.47L277.736 225.346L274.16 220.7Z" fill="white"/>
<path d="M271.47 234.148L282.308 231.945L282.396 231.702L278.753 227.088L268.509 229.075L268.386 229.414L271.47 234.148Z" fill="#736D99"/>
<path d="M278.842 227.064L268.515 229.068L271.664 233.833L282.418 231.709L278.842 227.064Z" fill="#4F4F4F"/>
<path d="M278.842 227.064L268.515 229.068L271.664 233.833L282.418 231.709L278.842 227.064Z" fill="white"/>
<path d="M276.158 240.515L286.995 238.312L287.083 238.07L283.441 233.455L273.197 235.442L273.073 235.781L276.158 240.515Z" fill="#736D99"/>
<path d="M283.529 233.431L273.202 235.436L276.352 240.2L287.106 238.077L283.529 233.431Z" fill="#4F4F4F"/>
<path d="M283.529 233.431L273.202 235.436L276.352 240.2L287.106 238.077L283.529 233.431Z" fill="white"/>
<path d="M281.482 248.282L292.319 246.079L292.408 245.837L288.765 241.222L278.521 243.209L278.397 243.548L281.482 248.282Z" fill="#736D99"/>
<path d="M288.853 241.198L278.527 243.203L281.676 247.967L292.43 245.844L288.853 241.198Z" fill="#4F4F4F"/>
<path d="M288.853 241.198L278.527 243.203L281.676 247.967L292.43 245.844L288.853 241.198Z" fill="white"/>
<path d="M286.828 256.053L297.665 253.85L297.753 253.608L294.111 248.993L283.867 250.98L283.743 251.319L286.828 256.053Z" fill="#736D99"/>
<path d="M294.199 248.969L283.872 250.973L287.021 255.738L297.776 253.614L294.199 248.969Z" fill="#4F4F4F"/>
<path d="M294.199 248.969L283.872 250.973L287.021 255.738L297.776 253.614L294.199 248.969Z" fill="white"/>
<path d="M249.564 223.852L260.401 221.648L260.49 221.406L256.847 216.791L246.603 218.779L246.479 219.118L249.564 223.852Z" fill="#736D99"/>
<path d="M256.935 216.767L246.609 218.772L249.758 223.537L260.512 221.413L256.935 216.767Z" fill="#4F4F4F"/>
<path d="M256.935 216.767L246.609 218.772L249.758 223.537L260.512 221.413L256.935 216.767Z" fill="white"/>
<path d="M254.244 230.219L265.081 228.016L265.169 227.774L261.527 223.159L251.283 225.146L251.159 225.485L254.244 230.219Z" fill="#736D99"/>
<path d="M261.615 223.135L251.288 225.14L254.437 229.904L265.192 227.781L261.615 223.135Z" fill="#4F4F4F"/>
<path d="M261.615 223.135L251.288 225.14L254.437 229.904L265.192 227.781L261.615 223.135Z" fill="white"/>
<path d="M258.923 236.582L269.761 234.379L269.849 234.136L266.206 229.522L255.962 231.509L255.839 231.848L258.923 236.582Z" fill="#736D99"/>
<path d="M266.295 229.497L255.968 231.502L259.117 236.267L269.871 234.143L266.295 229.497Z" fill="#4F4F4F"/>
<path d="M266.295 229.497L255.968 231.502L259.117 236.267L269.871 234.143L266.295 229.497Z" fill="white"/>
<path d="M263.613 242.949L274.45 240.746L274.538 240.504L270.896 235.889L260.652 237.876L260.528 238.215L263.613 242.949Z" fill="#736D99"/>
<path d="M270.984 235.865L260.657 237.87L263.807 242.635L274.561 240.511L270.984 235.865Z" fill="#4F4F4F"/>
<path d="M270.984 235.865L260.657 237.87L263.807 242.635L274.561 240.511L270.984 235.865Z" fill="white"/>
<path d="M268.937 250.717L279.774 248.514L279.863 248.272L276.22 243.657L265.976 245.644L265.852 245.983L268.937 250.717Z" fill="#736D99"/>
<path d="M276.308 243.633L265.982 245.637L269.131 250.402L279.885 248.278L276.308 243.633Z" fill="#4F4F4F"/>
<path d="M276.308 243.633L265.982 245.637L269.131 250.402L279.885 248.278L276.308 243.633Z" fill="white"/>
<path d="M274.283 258.488L285.12 256.284L285.208 256.042L281.566 251.427L271.322 253.415L271.198 253.754L274.283 258.488Z" fill="#736D99"/>
<path d="M281.654 251.403L271.327 253.408L274.477 258.173L285.231 256.049L281.654 251.403Z" fill="#4F4F4F"/>
<path d="M281.654 251.403L271.327 253.408L274.477 258.173L285.231 256.049L281.654 251.403Z" fill="white"/>
<path d="M237.023 226.287L247.86 224.084L247.949 223.842L244.306 219.227L234.062 221.214L233.938 221.553L237.023 226.287Z" fill="#736D99"/>
<path d="M244.394 219.203L234.068 221.207L237.217 225.972L247.971 223.848L244.394 219.203Z" fill="#4F4F4F"/>
<path d="M244.394 219.203L234.068 221.207L237.217 225.972L247.971 223.848L244.394 219.203Z" fill="white"/>
<path d="M241.704 232.652L252.542 230.449L252.63 230.207L248.988 225.592L238.744 227.579L238.62 227.918L241.704 232.652Z" fill="#736D99"/>
<path d="M249.076 225.568L238.749 227.573L241.898 232.337L252.652 230.214L249.076 225.568Z" fill="#4F4F4F"/>
<path d="M249.076 225.568L238.749 227.573L241.898 232.337L252.652 230.214L249.076 225.568Z" fill="white"/>
<path d="M246.384 239.017L257.222 236.813L257.31 236.571L253.667 231.957L243.423 233.944L243.3 234.283L246.384 239.017Z" fill="#736D99"/>
<path d="M253.756 231.932L243.429 233.937L246.578 238.702L257.332 236.578L253.756 231.932Z" fill="#4F4F4F"/>
<path d="M253.756 231.932L243.429 233.937L246.578 238.702L257.332 236.578L253.756 231.932Z" fill="white"/>
<path d="M251.07 245.383L261.907 243.18L261.995 242.938L258.353 238.323L248.109 240.31L247.985 240.649L251.07 245.383Z" fill="#736D99"/>
<path d="M258.441 238.299L248.114 240.303L251.264 245.068L262.018 242.944L258.441 238.299Z" fill="#4F4F4F"/>
<path d="M258.441 238.299L248.114 240.303L251.264 245.068L262.018 242.944L258.441 238.299Z" fill="white"/>
<path d="M256.406 253.154L267.243 250.951L267.331 250.709L263.689 246.094L253.445 248.081L253.321 248.42L256.406 253.154Z" fill="#736D99"/>
<path d="M263.777 246.07L253.45 248.075L256.6 252.839L267.354 250.716L263.777 246.07Z" fill="#4F4F4F"/>
<path d="M263.777 246.07L253.45 248.075L256.6 252.839L267.354 250.716L263.777 246.07Z" fill="white"/>
<path d="M261.74 260.922L272.577 258.719L272.665 258.476L269.023 253.862L258.779 255.849L258.655 256.188L261.74 260.922Z" fill="#736D99"/>
<path d="M269.111 253.837L258.784 255.842L261.934 260.607L272.688 258.483L269.111 253.837Z" fill="#4F4F4F"/>
<path d="M269.111 253.837L258.784 255.842L261.934 260.607L272.688 258.483L269.111 253.837Z" fill="white"/>
<path d="M225.517 229.098L236.355 226.895L236.443 226.653L232.8 222.038L222.556 224.025L222.433 224.364L225.517 229.098Z" fill="#736D99"/>
<path d="M232.889 222.014L222.562 224.018L225.711 228.783L236.465 226.659L232.889 222.014Z" fill="#4F4F4F"/>
<path d="M232.889 222.014L222.562 224.018L225.711 228.783L236.465 226.659L232.889 222.014Z" fill="white"/>
<path d="M230.185 235.462L241.023 233.259L241.111 233.017L237.468 228.402L227.224 230.389L227.101 230.728L230.185 235.462Z" fill="#736D99"/>
<path d="M237.556 228.378L227.23 230.382L230.379 235.147L241.133 233.023L237.556 228.378Z" fill="#4F4F4F"/>
<path d="M237.556 228.378L227.23 230.382L230.379 235.147L241.133 233.023L237.556 228.378Z" fill="white"/>
<path d="M234.88 241.828L245.718 239.625L245.806 239.383L242.164 234.768L231.919 236.756L231.796 237.095L234.88 241.828Z" fill="#736D99"/>
<path d="M242.252 234.744L231.925 236.749L235.074 241.514L245.828 239.39L242.252 234.744Z" fill="#4F4F4F"/>
<path d="M242.252 234.744L231.925 236.749L235.074 241.514L245.828 239.39L242.252 234.744Z" fill="white"/>
<path d="M239.556 248.191L250.394 245.988L250.482 245.746L246.839 241.131L236.595 243.118L236.472 243.457L239.556 248.191Z" fill="#736D99"/>
<path d="M246.928 241.107L236.601 243.112L239.75 247.876L250.504 245.753L246.928 241.107Z" fill="#4F4F4F"/>
<path d="M246.928 241.107L236.601 243.112L239.75 247.876L250.504 245.753L246.928 241.107Z" fill="white"/>
<path d="M244.894 255.963L255.731 253.76L255.82 253.517L252.177 248.903L241.933 250.89L241.81 251.229L244.894 255.963Z" fill="#736D99"/>
<path d="M252.265 248.878L241.939 250.883L245.088 255.648L255.842 253.524L252.265 248.878Z" fill="#4F4F4F"/>
<path d="M252.265 248.878L241.939 250.883L245.088 255.648L255.842 253.524L252.265 248.878Z" fill="white"/>
<path d="M250.224 263.73L261.062 261.527L261.15 261.285L257.507 256.67L247.263 258.657L247.14 258.996L250.224 263.73Z" fill="#736D99"/>
<path d="M257.596 256.646L247.269 258.651L250.418 263.415L261.172 261.292L257.596 256.646Z" fill="#4F4F4F"/>
<path d="M257.596 256.646L247.269 258.651L250.418 263.415L261.172 261.292L257.596 256.646Z" fill="white"/>
<path d="M212.964 231.532L223.802 229.329L223.89 229.087L220.247 224.472L210.003 226.46L209.88 226.799L212.964 231.532Z" fill="#736D99"/>
<path d="M220.336 224.448L210.009 226.453L213.158 231.218L223.912 229.094L220.336 224.448Z" fill="#4F4F4F"/>
<path d="M220.336 224.448L210.009 226.453L213.158 231.218L223.912 229.094L220.336 224.448Z" fill="white"/>
<path d="M217.642 237.896L228.48 235.693L228.568 235.45L224.925 230.836L214.681 232.823L214.558 233.162L217.642 237.896Z" fill="#736D99"/>
<path d="M225.014 230.811L214.687 232.816L217.836 237.581L228.59 235.457L225.014 230.811Z" fill="#4F4F4F"/>
<path d="M225.014 230.811L214.687 232.816L217.836 237.581L228.59 235.457L225.014 230.811Z" fill="white"/>
<path d="M222.329 244.263L233.167 242.059L233.255 241.817L229.613 237.202L219.369 239.19L219.245 239.529L222.329 244.263Z" fill="#736D99"/>
<path d="M229.701 237.178L219.374 239.183L222.523 243.948L233.277 241.824L229.701 237.178Z" fill="#4F4F4F"/>
<path d="M229.701 237.178L219.374 239.183L222.523 243.948L233.277 241.824L229.701 237.178Z" fill="white"/>
<path d="M227.007 250.627L237.845 248.423L237.933 248.181L234.29 243.566L224.046 245.554L223.923 245.893L227.007 250.627Z" fill="#736D99"/>
<path d="M234.379 243.542L224.052 245.547L227.201 250.312L237.955 248.188L234.379 243.542Z" fill="#4F4F4F"/>
<path d="M234.379 243.542L224.052 245.547L227.201 250.312L237.955 248.188L234.379 243.542Z" fill="white"/>
<path d="M232.341 258.396L243.179 256.193L243.267 255.951L239.624 251.336L229.38 253.323L229.257 253.662L232.341 258.396Z" fill="#736D99"/>
<path d="M239.713 251.312L229.386 253.317L232.535 258.081L243.289 255.958L239.713 251.312Z" fill="#4F4F4F"/>
<path d="M239.713 251.312L229.386 253.317L232.535 258.081L243.289 255.958L239.713 251.312Z" fill="white"/>
<path d="M237.677 266.164L248.515 263.961L248.603 263.719L244.96 259.104L234.716 261.091L234.593 261.43L237.677 266.164Z" fill="#736D99"/>
<path d="M245.049 259.08L234.722 261.085L237.871 265.849L248.625 263.726L245.049 259.08Z" fill="#4F4F4F"/>
<path d="M245.049 259.08L234.722 261.085L237.871 265.849L248.625 263.726L245.049 259.08Z" fill="#9190AC"/>
<path d="M203.701 240.987L214.538 238.784L214.626 238.542L210.984 233.927L200.74 235.914L200.616 236.253L203.701 240.987Z" fill="#736D99"/>
<path d="M211.072 233.903L200.745 235.908L203.895 240.672L214.649 238.549L211.072 233.903Z" fill="#4F4F4F"/>
<path d="M211.072 233.903L200.745 235.908L203.895 240.672L214.649 238.549L211.072 233.903Z" fill="white"/>
<path d="M208.388 247.354L219.226 245.151L219.314 244.909L215.671 240.294L205.427 242.281L205.304 242.621L208.388 247.354Z" fill="#736D99"/>
<path d="M215.76 240.27L205.433 242.275L208.582 247.04L219.336 244.916L215.76 240.27Z" fill="#4F4F4F"/>
<path d="M215.76 240.27L205.433 242.275L208.582 247.04L219.336 244.916L215.76 240.27Z" fill="white"/>
<path d="M213.06 253.718L223.898 251.515L223.986 251.273L220.343 246.658L210.099 248.645L209.976 248.984L213.06 253.718Z" fill="#736D99"/>
<path d="M220.431 246.634L210.105 248.638L213.254 253.403L224.008 251.279L220.431 246.634Z" fill="#4F4F4F"/>
<path d="M220.431 246.634L210.105 248.638L213.254 253.403L224.008 251.279L220.431 246.634Z" fill="white"/>
<path d="M218.4 261.488L229.237 259.285L229.325 259.043L225.683 254.428L215.439 256.415L215.315 256.755L218.4 261.488Z" fill="#736D99"/>
<path d="M225.771 254.404L215.445 256.409L218.594 261.174L229.348 259.05L225.771 254.404Z" fill="#4F4F4F"/>
<path d="M225.771 254.404L215.445 256.409L218.594 261.174L229.348 259.05L225.771 254.404Z" fill="#9190AC"/>
<path d="M223.749 269.259L234.587 267.056L234.675 266.814L231.033 262.199L220.788 264.186L220.665 264.525L223.749 269.259Z" fill="#736D99"/>
<path d="M231.121 262.175L220.794 264.179L223.943 268.944L234.697 266.82L231.121 262.175Z" fill="#4F4F4F"/>
<path d="M231.121 262.175L220.794 264.179L223.943 268.944L234.697 266.82L231.121 262.175Z" fill="#9190AC"/>
<path d="M185.072 237.714L195.909 235.511L195.997 235.269L192.355 230.654L182.111 232.641L181.987 232.98L185.072 237.714Z" fill="#736D99"/>
<path d="M192.443 230.63L182.116 232.635L185.266 237.4L196.02 235.276L192.443 230.63Z" fill="#4F4F4F"/>
<path d="M192.443 230.63L182.116 232.635L185.266 237.4L196.02 235.276L192.443 230.63Z" fill="white"/>
<path d="M189.744 244.078L200.581 241.875L200.669 241.633L197.027 237.018L186.783 239.005L186.659 239.344L189.744 244.078Z" fill="#736D99"/>
<path d="M197.115 236.994L186.788 238.999L189.937 243.763L200.692 241.64L197.115 236.994Z" fill="#4F4F4F"/>
<path d="M197.115 236.994L186.788 238.999L189.937 243.763L200.692 241.64L197.115 236.994Z" fill="white"/>
<path d="M194.425 250.446L205.263 248.243L205.351 248L201.708 243.386L191.464 245.373L191.341 245.712L194.425 250.446Z" fill="#736D99"/>
<path d="M201.797 243.361L191.47 245.366L194.619 250.131L205.373 248.007L201.797 243.361Z" fill="#4F4F4F"/>
<path d="M201.797 243.361L191.47 245.366L194.619 250.131L205.373 248.007L201.797 243.361Z" fill="white"/>
<path d="M199.113 256.808L209.95 254.605L210.038 254.363L206.396 249.748L196.152 251.735L196.028 252.074L199.113 256.808Z" fill="#736D99"/>
<path d="M206.484 249.724L196.157 251.729L199.307 256.493L210.061 254.37L206.484 249.724Z" fill="#4F4F4F"/>
<path d="M206.484 249.724L196.157 251.729L199.307 256.493L210.061 254.37L206.484 249.724Z" fill="white"/>
<path d="M204.447 264.578L215.284 262.375L215.372 262.133L211.73 257.518L201.486 259.506L201.362 259.845L204.447 264.578Z" fill="#736D99"/>
<path d="M211.818 257.494L201.491 259.499L204.641 264.264L215.395 262.14L211.818 257.494Z" fill="#4F4F4F"/>
<path d="M211.818 257.494L201.491 259.499L204.641 264.264L215.395 262.14L211.818 257.494Z" fill="white"/>
<path d="M209.785 272.35L220.622 270.147L220.71 269.905L217.068 265.29L206.824 267.278L206.7 267.617L209.785 272.35Z" fill="#736D99"/>
<path d="M217.156 265.266L206.829 267.271L209.978 272.036L220.733 269.912L217.156 265.266Z" fill="#4F4F4F"/>
<path d="M217.156 265.266L206.829 267.271L209.978 272.036L220.733 269.912L217.156 265.266Z" fill="#9190AC"/>
<path d="M206.748 457.841L228.888 465.89L237.406 458.493L234.549 442.299C226.716 432.844 212.313 405.651 210.067 411.83C207.821 418.008 206.31 448.355 206.748 457.841Z" fill="#D9D9D9"/>
<path d="M107.196 499.18C108.918 497.008 107.818 488.914 106.351 485.466L51.5847 446.903C49.338 446.669 43.9647 447.98 40.4455 455.095C36.0465 463.989 55.5663 479.246 59.0772 484.02C61.8079 487.733 67.1751 485.798 78.2229 500.307C89.2707 514.816 105.043 501.895 107.196 499.18Z" fill="#494949"/>
<path d="M101.866 478.567L103.511 469.231C99.7507 463.006 89.221 449.737 86.6049 453.199C82.1121 459.144 80.4819 462.025 78.6568 465.442C78.454 466.534 76.3173 472.444 81.4663 476.956C89.4241 483.929 97.7945 481.75 101.866 478.567Z" fill="#FFFFFD"/>
<path d="M105.582 493.992C108.245 490.659 107.117 482.045 106.087 475.762C105.817 474.116 104.533 472.825 102.892 472.528C102.923 475.649 100.255 482.029 92.2422 480.982C82.2265 479.672 80.2119 470.779 78.9011 467.971C77.5902 465.162 84.1893 458.234 82.0831 459.218C79.9769 460.201 62.4699 447.424 61.1124 446.348C59.7549 445.271 47.6786 443.213 43.9817 451.779C40.2848 460.345 56.8559 475.696 60.554 479.955C64.2522 484.214 70.618 485.945 75.5331 490.064C80.4482 494.182 83.772 499.471 89.4358 501.53C95.0996 503.589 102.372 498.01 105.582 493.992Z" fill="url(#paint0_linear_909_1025)"/>
<path d="M66.8594 465.131L78.8494 460.292C80.45 459.345 76.2513 457.928 73.9519 457.337C70.799 458.601 64.2265 461.288 63.1594 461.919C62.0924 462.55 65.1815 464.323 66.8594 465.131Z" fill="#D9D9D9"/>
<path d="M59.2149 460.905L71.2049 456.066C72.8055 455.119 68.6068 453.702 66.3074 453.111C63.1545 454.375 56.582 457.062 55.5149 457.693C54.4478 458.324 57.5369 460.097 59.2149 460.905Z" fill="#D9D9D9"/>
<path d="M228.827 517.36C230.549 515.188 229.449 507.094 227.982 503.646L173.216 465.083C170.969 464.849 165.596 466.16 162.076 473.275C157.677 482.169 177.197 497.426 180.708 502.2C183.439 505.913 188.806 503.978 199.854 518.487C210.902 532.996 226.674 520.075 228.827 517.36Z" fill="#494949"/>
<path d="M223.496 496.747L226.365 482.459C221.825 483.724 204.299 468.73 203.57 473.007C202.54 479.045 202.112 480.205 200.287 483.622C200.084 484.714 197.947 490.624 203.096 495.136C211.054 502.109 219.425 499.93 223.496 496.747Z" fill="#FFFFFD"/>
<path d="M227.213 512.172C230.044 508.629 228.19 500.232 227.061 494.076C226.874 493.058 226.443 492.1 225.79 491.296L224.772 490.042C224.164 493.319 221.885 500.209 213.873 499.161C203.857 497.852 200.443 489.248 200.532 486.15C200.63 482.689 203.287 476.985 202.585 477.313C200.479 478.296 184.101 465.604 182.743 464.528C181.386 463.451 169.309 461.393 165.612 469.959C161.915 478.525 178.486 493.876 182.185 498.135C185.883 502.394 192.249 504.125 197.164 508.244C202.079 512.362 205.403 517.651 211.066 519.71C216.73 521.769 224.003 516.19 227.213 512.172Z" fill="url(#paint1_linear_909_1025)"/>
<path d="M188.49 483.311L200.48 478.471C202.081 477.525 197.882 476.107 195.583 475.517C192.43 476.781 185.857 479.467 184.79 480.098C183.723 480.729 186.812 482.503 188.49 483.311Z" fill="#D9D9D9"/>
<path d="M180.846 479.085L192.836 474.245C194.436 473.299 190.238 471.881 187.938 471.291C184.785 472.555 178.213 475.241 177.146 475.872C176.079 476.503 179.168 478.277 180.846 479.085Z" fill="#D9D9D9"/>
<path d="M104.467 468.18L114.925 453.641C115.721 452.535 115.671 451.032 114.805 449.981L103.036 435.701C101.766 434.16 99.375 434.263 98.2469 435.91C93.9957 442.118 87.6278 451.458 86.4126 453.733C84.5874 457.15 88.3788 457.946 89.6431 462.486C90.5158 465.62 96.9809 468.096 101.394 469.307C102.551 469.625 103.766 469.155 104.467 468.18Z" fill="#F8A8A7"/>
<path d="M226.362 482.46L229.59 465.562L206.747 457.841C206.747 457.841 204.901 468.829 203.591 472.433C202.999 474.061 207.732 479.185 211.851 480.682C218.545 483.116 223.553 483.771 226.362 482.46Z" fill="#F8A8A7"/>
<path d="M268.768 452.405C287.042 463.712 298.818 456.334 302.422 451.232L294.224 382.38L240.859 330.336L147.622 349.489C120.401 392.835 99.0824 431.059 98.671 436.039C98.1568 442.265 116.038 454.011 121.187 455.883C126.336 457.755 134.197 429.717 155.586 420.588C172.698 413.284 189.05 383.592 195.086 369.658C195.555 371.577 245.925 438.272 268.768 452.405Z" fill="#E3DAEB"/>
<path d="M195.086 369.658C195.555 371.577 245.925 438.272 268.768 452.405C287.042 463.712 298.818 456.334 302.422 451.232L294.224 382.38L240.859 330.336L147.622 349.489C120.401 392.835 99.0824 431.059 98.671 436.039C98.1567 442.265 116.038 454.011 121.187 455.883C126.336 457.755 134.197 429.717 155.586 420.588C172.698 413.284 189.05 383.592 195.086 369.658ZM195.086 369.658C194.712 368.123 189.968 360.219 187.643 356.459" stroke="black" stroke-opacity="0.12"/>
<path d="M445.638 246.104L455.363 246.995C455.735 247.029 456.097 247.132 456.431 247.299L466.826 252.495C467.977 253.07 468.634 254.312 468.453 255.586C467.293 263.777 465.286 276.993 464.635 277.61C463.941 278.268 446.067 282.363 436.557 284.477C436.089 284.581 435.619 284.573 435.156 284.45C419.152 280.208 387.873 271.857 385.437 270.971C383.643 270.319 381.215 266.57 379.433 263.31C378.52 261.639 379.502 259.611 381.355 259.176L394.329 256.133L444.782 246.148C445.064 246.093 445.352 246.078 445.638 246.104Z" fill="#E6E6E6" stroke="black" stroke-opacity="0.12"/>
<path d="M446.992 270.029C454.481 264.823 457.003 252.113 455.411 246.871C459.155 247.261 474.045 250.133 481.156 256.23C489.069 263.014 493.659 274.752 495.481 284.172C498.001 297.199 492.877 303.628 491.646 310.759C463.266 319.873 405.786 337.84 402.903 336.792C399.298 335.481 324.278 444.033 305.884 451.337C291.168 457.18 261.703 437.594 252.807 427.365L270.589 378.45C258.653 377.609 214.037 283.859 214.317 273.468C214.597 263.077 237.157 261.952 238.328 263.543C239.498 265.134 262.339 298.516 270.392 314.85C278.444 331.185 292.762 310.529 308.307 297.143C327.824 280.338 337.653 269.024 344.813 267.277C350.57 265.872 377.858 256.555 380.198 259.738C407.723 280.237 437.632 276.536 446.992 270.029Z" fill="#818BC5"/>
<path d="M270.589 378.45C258.653 377.609 214.037 283.859 214.317 273.468C214.597 263.077 237.157 261.952 238.328 263.543C239.498 265.134 262.339 298.516 270.392 314.85C278.444 331.185 292.762 310.529 308.307 297.143C327.824 280.338 337.653 269.024 344.813 267.277C350.57 265.872 377.858 256.555 380.198 259.738C407.723 280.237 437.632 276.536 446.992 270.029C454.481 264.823 457.003 252.113 455.411 246.871C459.155 247.261 474.045 250.133 481.156 256.23C489.069 263.014 493.659 274.752 495.481 284.172C498.001 297.199 492.877 303.628 491.646 310.759C463.266 319.873 405.786 337.84 402.903 336.792C399.298 335.481 324.278 444.033 305.884 451.337C291.168 457.18 261.703 437.594 252.807 427.365C252.807 427.365 263.645 397.553 270.589 378.45ZM270.589 378.45C292.295 376.636 303.691 371.319 319.027 355.85" stroke="black" stroke-opacity="0.12"/>
<path d="M440.032 231.257C439.733 226.95 443.277 224.469 445.087 223.767L418.821 162.921C412.471 158.475 397.121 153.983 386.526 171.583C373.282 193.583 387.046 236.699 391.307 238.61C396.068 240.745 401.17 237.936 401.17 237.936C405.413 236.953 407.361 237.101 408.297 238.374C408.149 249.046 398.096 254.68 393.089 256.163C394.103 257.114 399.182 261.526 413.636 265.381C434.7 268.375 444.404 257.717 445.604 249.604C443.872 245.283 440.332 235.563 440.032 231.257Z" fill="#F5A0A3"/>
<path d="M475.119 194.867C469.952 201.383 463.357 215.463 460.705 221.688C459.382 224.705 450.316 227.821 441.797 228.805C433.278 229.789 430.094 219.304 429.111 217.198C428.128 215.092 426.302 212.096 424.009 213.595C421.716 215.093 415.771 210.6 416.379 207.323C416.987 204.047 420.497 195.996 409.684 192.065C402.307 187.984 405.392 179.818 407.857 176.244C408.137 165.853 402.661 169.692 394.516 169.646C384.045 169.587 382.019 163.937 385.949 153.124C389.808 142.509 403.734 136.272 417.167 132.994C430.6 129.716 447.545 137.625 452.133 141.041C456.72 144.458 470.996 148.482 472.401 154.239C473.806 159.996 476.286 164.395 479.236 170.714C482.185 177.033 481.577 186.722 475.119 194.867Z" fill="#242328"/>
<path d="M375.693 188.733L410.236 193.13L410.33 189.666C402.56 188.59 376.441 186.674 376.628 186.159C376.816 185.644 378.781 183.444 382.058 184.052L382.619 182.507C382.619 182.507 381.661 182.417 380.888 182.461C376.722 182.695 375.084 185.597 374.522 187.142C373.212 190.746 373.763 193.458 374.991 195.474C376.817 198.469 381.123 199.451 381.123 199.451L380.983 198.235C379.438 197.673 376.994 196.102 376.068 194.116C375.307 192.486 375.272 191.495 375.693 188.733Z" fill="#D9D9D9"/>
<path d="M287.039 617.022C291.966 611.956 292.561 605.039 290.969 599.797C293.746 603.915 303.73 617.672 302.392 632.513C300.662 651.704 277.915 659.757 236.911 644.268C195.906 628.779 205.827 601.49 209.618 595.873C212.376 591.785 237.934 580.517 233.535 582.998C230.015 584.983 229.979 592.782 230.4 596.432C242.62 625.358 278.66 625.635 287.039 617.022Z" fill="#7D7D7D"/>
<path d="M313.164 518.301C317.004 517.994 320.713 518.301 323.492 518.35L270.224 494.905C269.444 495.982 267.304 497.808 274.531 502.3C283.565 507.916 275.049 534.55 268.872 551.541C263.922 565.16 252.805 579.705 247.345 585.104C234.708 597.415 248.149 605.216 261.576 610.097C275.478 615.151 284.184 607.24 282.825 599.751C281.736 593.744 280.218 580.732 281.793 573.727L294.949 537.537C298.248 528.461 303.538 519.071 313.164 518.301Z" fill="#696969"/>
<path d="M262.449 448.942C275.089 455.869 293.155 458.55 301.626 455.023C300.971 460.031 299.747 472.061 290.536 474.309C281.325 476.556 261.404 461.97 253.79 455.121L205.199 386.742C218.681 403.107 247.494 440.747 262.449 448.942Z" fill="#3A3C3D"/>
<path d="M255.414 455.127C268.596 470.179 284.841 473.598 291.316 473.425C306.623 482.099 333.436 502.844 318.234 516.438C284.496 513.034 263.172 497.393 256.728 489.998L230.044 451.151C220.51 436.221 201.197 405.106 200.223 400.088C199.249 395.071 203.311 388.386 205.464 385.671C216.621 402.552 242.231 440.076 255.414 455.127Z" fill="#464A4D"/>
<path d="M243.306 451.892C241.472 458.221 253.418 458.289 258.052 457.836L265.167 463.92C265.167 463.92 265.168 463.92 252.481 465.138C233.747 466.935 233.103 455.373 235.068 448.897L247.796 413.885L255.052 421.186C251.901 428.785 245.14 445.564 243.306 451.892Z" fill="#D9D9D9"/>
<path d="M512.626 358.793C514.888 355.726 515.981 351.952 515.708 348.15L514.584 332.51C513.45 316.725 499.045 305.296 483.416 307.779L449.989 313.091L400.62 320.042C388.679 321.723 378.084 328.576 371.653 338.777L291.149 466.478C286.601 473.693 285.197 482.453 287.263 490.727C289.578 500 295.843 507.791 304.402 512.043L309.823 514.737C317.444 518.523 326.036 519.901 334.459 518.687L365.092 514.272C381.668 511.883 397.285 505.037 410.274 494.466C414.088 491.362 417.495 487.789 420.414 483.831L512.626 358.793Z" fill="#777779"/>
<path d="M513.627 358.596C515.676 355.477 516.36 351.656 515.521 348.02C513.109 337.567 503.81 330.157 493.083 330.14L484.02 330.125L415.938 344.108C405.093 346.336 395.61 352.855 389.645 362.182L324.284 464.396C320.17 470.831 318.432 478.501 319.373 486.081C320.698 496.76 326.974 506.192 336.312 511.539L336.693 511.757C343.082 515.416 350.533 516.77 357.8 515.595L384.751 511.234C394.724 509.621 404.324 506.223 413.092 501.205C420.344 497.054 426.515 491.25 431.101 484.265L513.627 358.596Z" fill="#2C2C36"/>
<path d="M290.584 441.971C291.728 441.853 292.703 441.092 293.096 440.012L297.771 427.149C298.178 426.027 297.882 424.77 297.016 423.948L228.873 359.282C228.732 359.149 228.579 359.029 228.415 358.925L214.759 350.264C213.141 349.238 210.988 349.971 210.333 351.773L206.008 363.67C205.65 364.656 205.832 365.756 206.488 366.574L265.762 440.397C267.675 442.78 270.665 444.029 273.704 443.715L290.584 441.971Z" fill="#464A4D"/>
<path d="M295.692 429.219C298.082 428.985 299.242 426.177 297.714 424.324L234.412 347.566C233.74 346.751 232.687 346.349 231.642 346.51L212.578 349.437C210.286 349.789 209.243 352.498 210.707 354.296L270.108 427.229C272.224 429.827 275.5 431.192 278.835 430.867L295.692 429.219Z" fill="#D9D9D9"/>
<path d="M327.266 56.9923L288.055 152.928L139.868 178.921C148.041 156.437 165.726 106.826 171.079 88.2531C176.432 69.6797 182.233 66.6585 184.464 67.4696C225.731 60.3197 310.53 45.561 319.592 43.7253C328.654 41.8896 329.325 53.466 327.266 56.9923Z" fill="#B9BCD1"/>
<path d="M327.448 56.4781L290.761 157.397L142.574 183.389C150.748 160.905 168.433 111.295 173.785 92.7215C179.138 74.1481 184.939 71.127 187.17 71.9381C228.437 64.7882 313.236 50.0295 322.298 48.1938C331.36 46.3581 329.507 52.9518 327.448 56.4781Z" fill="#696878"/>
<path d="M285.332 153.092L321.27 54.2324L186.469 78.6786L153.339 176.227L285.332 153.092Z" fill="#F7F7F7"/>
<path d="M291.51 251.182C301.622 254.951 306.81 261.95 309.336 264.356L323.772 249.196C320.244 245.388 314.13 239.917 308.485 232.503C305.328 228.358 302.206 224.974 297.345 221.459C288.192 214.838 267.669 216.5 271.648 223.193C274.57 228.109 288.719 228.233 288.078 237.327C287.798 241.305 274.033 232.493 272.585 233.443C265.199 238.289 279.973 246.883 291.51 251.182Z" fill="#F5A0A3"/>
<path d="M326.089 248.229L349.12 268.26L327.731 283.802C321.598 277.687 308.763 264.782 306.478 262.086C303.623 258.716 305.869 252.537 311.064 246.265C315.22 241.247 322.812 245.484 326.089 248.229Z" fill="#818BC5" stroke="black" stroke-opacity="0.12"/>
<path d="M204.298 252.922C212.068 260.41 214.035 268.897 215.393 272.111L234.676 263.965C232.96 259.066 228.403 247.228 223.908 239.065C219.896 231.777 220.288 231.96 216.559 228.815C207.922 221.532 182.942 226.941 187.913 230.643C190.537 232.597 192.603 235.112 193.816 236.769C190.506 232.82 184.552 230.946 183.045 231.205C174.339 232.704 195.433 244.379 204.298 252.922Z" fill="#F5A0A3"/>
<path d="M206.75 457.841L228.89 465.89L237.408 458.494L234.551 442.299C226.718 432.845 212.315 405.651 210.069 411.83C207.822 418.009 206.312 448.355 206.75 457.841Z" fill="#E3DAEB" stroke="black" stroke-opacity="0.2"/>
<path d="M107.198 499.181C108.92 497.009 107.82 488.914 106.353 485.466L51.5867 446.903C49.3399 446.669 43.9666 447.98 40.4475 455.095C36.0485 463.989 55.5682 479.246 59.0792 484.02C61.8098 487.733 67.177 485.798 78.2248 500.307C89.2726 514.816 105.045 501.896 107.198 499.181Z" fill="#494949"/>
<path d="M101.868 478.567L103.513 469.231C99.7527 463.006 89.2229 449.738 86.6069 453.199C82.114 459.144 80.4839 462.025 78.6587 465.442C78.456 466.534 76.3192 472.444 81.4682 476.956C89.4261 483.929 97.7965 481.75 101.868 478.567Z" fill="#FFFFFD"/>
<path d="M105.584 493.992C108.247 490.66 107.119 482.046 106.089 475.762C105.819 474.116 104.535 472.825 102.894 472.529C102.925 475.649 100.257 482.029 92.2442 480.982C82.2284 479.673 80.2139 470.779 78.903 467.971C77.5922 465.163 84.1912 458.235 82.085 459.218C79.9788 460.201 62.4719 447.424 61.1144 446.348C59.7569 445.271 47.6806 443.213 43.9837 451.779C40.2868 460.345 56.8578 475.696 60.556 479.955C64.2541 484.214 70.62 485.945 75.5351 490.064C80.4502 494.182 83.774 499.471 89.4378 501.53C95.1016 503.589 102.374 498.011 105.584 493.992Z" fill="url(#paint2_linear_909_1025)"/>
<path d="M66.8613 465.132L78.8514 460.292C80.452 459.346 76.2533 457.928 73.9539 457.337C70.801 458.602 64.2284 461.288 63.1614 461.919C62.0943 462.55 65.1834 464.324 66.8613 465.132Z" fill="#D9D9D9"/>
<path d="M59.2168 460.905L71.2069 456.066C72.8075 455.119 68.6088 453.702 66.3093 453.111C63.1565 454.375 56.5839 457.062 55.5168 457.693C54.4498 458.324 57.5389 460.097 59.2168 460.905Z" fill="#D9D9D9"/>
<path d="M228.829 517.361C230.551 515.189 229.451 507.094 227.984 503.646L173.218 465.083C170.971 464.849 165.597 466.16 162.078 473.275C157.679 482.169 177.199 497.426 180.71 502.2C183.441 505.913 188.808 503.978 199.856 518.487C210.903 532.996 226.676 520.076 228.829 517.361Z" fill="#494949"/>
<path d="M223.498 496.747L226.367 482.46C221.827 483.724 204.301 468.73 203.572 473.007C202.542 479.045 202.114 480.205 200.289 483.622C200.086 484.714 197.949 490.624 203.098 495.136C211.056 502.109 219.427 499.93 223.498 496.747Z" fill="#FFFFFD"/>
<path d="M227.215 512.172C230.046 508.629 228.192 500.232 227.063 494.076C226.876 493.058 226.445 492.1 225.792 491.296L224.774 490.042C224.166 493.319 221.887 500.209 213.875 499.162C203.859 497.852 200.445 489.248 200.534 486.151C200.632 482.689 203.289 476.985 202.587 477.313C200.481 478.296 184.102 465.604 182.745 464.528C181.388 463.451 169.311 461.393 165.614 469.959C161.917 478.525 178.488 493.876 182.187 498.135C185.885 502.394 192.251 504.125 197.166 508.244C202.081 512.362 205.405 517.651 211.068 519.71C216.732 521.769 224.005 516.19 227.215 512.172Z" fill="url(#paint3_linear_909_1025)"/>
<path d="M188.492 483.311L200.482 478.472C202.083 477.525 197.884 476.107 195.585 475.517C192.432 476.781 185.859 479.467 184.792 480.098C183.725 480.729 186.814 482.503 188.492 483.311Z" fill="#D9D9D9"/>
<path d="M180.848 479.085L192.838 474.245C194.438 473.299 190.24 471.881 187.94 471.291C184.787 472.555 178.215 475.241 177.148 475.872C176.081 476.503 179.17 478.277 180.848 479.085Z" fill="#D9D9D9"/>
<path d="M104.469 468.18L114.927 453.641C115.723 452.535 115.673 451.032 114.807 449.981L103.038 435.701C101.768 434.16 99.377 434.263 98.2488 435.91C93.9976 442.118 87.6298 451.458 86.4145 453.734C84.5894 457.151 88.3808 457.946 89.645 462.486C90.5177 465.62 96.9828 468.096 101.396 469.307C102.553 469.625 103.768 469.155 104.469 468.18Z" fill="#F8A8A7"/>
<path d="M226.364 482.46L229.592 465.562L206.749 457.841C206.749 457.841 204.903 468.829 203.593 472.433C203.001 474.061 207.734 479.185 211.853 480.683C218.547 483.116 223.555 483.771 226.364 482.46Z" fill="#F8A8A7"/>
<path d="M268.77 452.405C287.044 463.712 298.82 456.334 302.424 451.232L294.226 382.38L240.861 330.336L195.478 314.175C183.115 309.772 169.353 314.531 162.486 325.715C135.143 370.247 99.0295 431.723 98.673 436.039C98.1587 442.265 116.04 454.012 121.189 455.883C126.338 457.755 134.199 429.717 155.588 420.588C172.7 413.284 189.052 383.592 195.088 369.658C195.556 371.577 245.927 438.272 268.77 452.405Z" fill="#E3DAEB"/>
<path d="M195.088 369.658C195.556 371.577 245.927 438.272 268.77 452.405C287.044 463.712 298.82 456.334 302.424 451.232L294.226 382.38L240.861 330.336L195.478 314.175C183.115 309.772 169.353 314.531 162.486 325.715C135.143 370.247 99.0296 431.723 98.673 436.039C98.1587 442.265 116.04 454.012 121.189 455.883C126.338 457.755 134.199 429.717 155.588 420.588C172.7 413.284 189.052 383.592 195.088 369.658ZM195.088 369.658C194.714 368.123 189.97 360.219 187.645 356.46" stroke="black" stroke-opacity="0.12"/>
<path d="M445.64 246.104L455.365 246.995C455.737 247.029 456.099 247.132 456.433 247.299L466.828 252.495C467.979 253.07 468.636 254.312 468.455 255.586C467.295 263.777 465.288 276.993 464.637 277.61C463.943 278.268 446.069 282.363 436.559 284.477C436.091 284.581 435.621 284.573 435.158 284.45C419.154 280.208 387.875 271.857 385.439 270.971C383.645 270.319 381.217 266.57 379.435 263.31C378.522 261.639 379.503 259.611 381.357 259.176L394.331 256.133L444.784 246.149C445.066 246.093 445.354 246.078 445.64 246.104Z" fill="#E6E6E6" stroke="black" stroke-opacity="0.12"/>
<path d="M446.994 270.029C454.483 264.823 457.005 252.113 455.413 246.871C459.157 247.261 474.047 250.134 481.158 256.23C489.071 263.014 493.661 274.752 495.483 284.172C498.003 297.199 492.879 303.628 491.648 310.759C463.268 319.873 405.788 337.84 402.905 336.792C399.3 335.482 324.28 444.033 305.886 451.337C291.17 457.18 261.705 437.594 252.809 427.365L270.591 378.45C258.655 377.609 214.039 283.86 214.319 273.469C214.599 263.077 237.159 261.952 238.33 263.543C239.5 265.134 262.341 298.516 270.393 314.851C278.446 331.185 292.764 310.529 308.309 297.144C327.826 280.338 337.655 269.025 344.815 267.277C350.572 265.873 377.86 256.555 380.2 259.738C407.725 280.237 437.634 276.536 446.994 270.029Z" fill="url(#paint4_linear_909_1025)"/>
<path d="M270.591 378.45C258.655 377.609 214.039 283.86 214.319 273.469C214.599 263.077 237.159 261.952 238.33 263.543C239.5 265.134 262.341 298.516 270.393 314.851C278.446 331.185 292.764 310.529 308.309 297.144C327.826 280.338 337.655 269.025 344.815 267.277C350.572 265.873 377.86 256.555 380.2 259.738C407.725 280.237 437.634 276.536 446.994 270.029C454.483 264.823 457.005 252.113 455.413 246.871C459.157 247.261 474.047 250.134 481.158 256.23C489.071 263.014 493.661 274.752 495.483 284.172C498.003 297.199 492.879 303.628 491.648 310.759C463.268 319.873 405.788 337.84 402.905 336.792C399.3 335.482 324.28 444.033 305.886 451.337C291.17 457.18 261.705 437.594 252.809 427.365C252.809 427.365 263.646 397.553 270.591 378.45ZM270.591 378.45C292.297 376.636 303.693 371.319 319.029 355.85" stroke="black" stroke-opacity="0.12"/>
<path d="M440.034 231.257C439.734 226.95 443.279 224.469 445.089 223.767L418.823 162.921C412.473 158.475 397.123 153.983 386.528 171.583C373.284 193.583 387.048 236.699 391.308 238.61C396.07 240.745 401.172 237.936 401.172 237.936C405.415 236.953 407.363 237.101 408.299 238.374C408.151 249.046 398.098 254.68 393.091 256.163C394.105 257.114 399.184 261.526 413.638 265.381C434.702 268.375 444.406 257.718 445.606 249.604C443.874 245.283 440.334 235.563 440.034 231.257Z" fill="#F5A0A3"/>
<path d="M475.121 194.867C469.954 201.383 463.359 215.463 460.707 221.688C459.384 224.705 450.318 227.821 441.799 228.805C433.28 229.789 430.096 219.304 429.113 217.198C428.13 215.092 426.304 212.097 424.011 213.595C421.717 215.093 415.773 210.6 416.381 207.323C416.989 204.047 420.499 195.996 409.686 192.065C402.309 187.984 405.394 179.818 407.859 176.245C408.139 165.853 402.663 169.692 394.518 169.646C384.047 169.587 382.02 163.937 385.951 153.124C389.81 142.509 403.736 136.272 417.169 132.994C430.602 129.716 447.547 137.625 452.135 141.042C456.722 144.458 470.998 148.482 472.403 154.239C473.808 159.996 476.288 164.395 479.238 170.714C482.187 177.033 481.579 186.722 475.121 194.867Z" fill="#242328"/>
<path d="M375.695 188.733L410.238 193.13L410.332 189.666C402.562 188.59 376.443 186.674 376.63 186.159C376.818 185.644 378.783 183.444 382.06 184.052L382.621 182.507C382.621 182.507 381.663 182.417 380.889 182.461C376.724 182.695 375.086 185.597 374.524 187.142C373.214 190.746 373.765 193.458 374.993 195.474C376.819 198.469 381.125 199.452 381.125 199.452L380.985 198.235C379.44 197.673 376.996 196.102 376.07 194.116C375.309 192.486 375.274 191.495 375.695 188.733Z" fill="#B40097"/>
<path d="M262.451 448.942C275.091 455.869 293.157 458.55 301.628 455.023C300.973 460.031 299.749 472.061 290.538 474.309C281.327 476.556 261.406 461.97 253.792 455.121L205.201 386.742C218.683 403.107 247.496 440.747 262.451 448.942Z" fill="#3A3C3D"/>
<path d="M255.416 455.128C268.598 470.179 284.843 473.598 291.318 473.425C306.625 482.099 333.438 502.844 318.236 516.438C284.497 513.034 263.174 497.393 256.73 489.998L230.046 451.151C220.512 436.221 201.199 405.106 200.225 400.088C199.251 395.071 203.313 388.386 205.466 385.671C216.623 402.552 242.233 440.076 255.416 455.128Z" fill="#464A4D"/>
<path d="M243.308 451.892C241.474 458.221 253.42 458.289 258.054 457.836L265.169 463.92C265.169 463.92 265.17 463.921 252.483 465.138C233.749 466.935 233.104 455.373 235.07 448.898L247.798 413.885L255.053 421.186C251.903 428.785 245.142 445.564 243.308 451.892Z" fill="#D9D9D9"/>
<path d="M512.628 358.793C514.89 355.726 515.983 351.952 515.71 348.15L514.586 332.51C513.452 316.725 499.047 305.296 483.418 307.78L449.991 313.091L400.622 320.042C388.681 321.724 378.086 328.576 371.655 338.777L291.151 466.478C286.603 473.693 285.199 482.453 287.265 490.727C289.58 500 295.845 507.791 304.404 512.044L309.825 514.737C317.446 518.523 326.038 519.901 334.46 518.687L365.094 514.272C381.67 511.883 397.286 505.037 410.276 494.466C414.09 491.362 417.497 487.789 420.416 483.831L512.628 358.793Z" fill="#777779"/>
<path d="M513.629 358.596C515.678 355.477 516.362 351.656 515.523 348.02C513.111 337.567 503.812 330.157 493.085 330.14L484.022 330.125L415.94 344.108C405.095 346.336 395.611 352.855 389.647 362.182L324.286 464.396C320.172 470.831 318.434 478.501 319.375 486.081C320.7 496.76 326.976 506.192 336.314 511.539L336.695 511.758C343.084 515.416 350.535 516.771 357.802 515.595L384.753 511.234C394.726 509.621 404.326 506.224 413.094 501.205C420.346 497.054 426.516 491.25 431.103 484.265L513.629 358.596Z" fill="#2C2C36"/>
<path d="M290.586 441.971C291.73 441.853 292.705 441.092 293.098 440.012L297.772 427.149C298.18 426.027 297.884 424.77 297.018 423.948L228.875 359.282C228.734 359.149 228.581 359.029 228.417 358.925L214.761 350.264C213.143 349.238 210.99 349.972 210.335 351.773L206.01 363.671C205.652 364.656 205.834 365.756 206.49 366.574L265.764 440.397C267.676 442.78 270.667 444.029 273.706 443.715L290.586 441.971Z" fill="#464A4D"/>
<path d="M295.694 429.219C298.084 428.985 299.244 426.177 297.716 424.324L234.414 347.566C233.742 346.751 232.689 346.349 231.644 346.51L212.58 349.437C210.287 349.788 209.244 352.498 210.709 354.296L270.11 427.229C272.226 429.827 275.502 431.192 278.837 430.866L295.694 429.219Z" fill="#D9D9D9"/>
<defs>
<linearGradient id="paint0_linear_909_1025" x1="99.5222" y1="488.208" x2="46.2061" y2="453.67" gradientUnits="userSpaceOnUse">
<stop stop-color="#565EB1"/>
<stop offset="1" stop-color="#878ABF"/>
</linearGradient>
<linearGradient id="paint1_linear_909_1025" x1="221.153" y1="506.388" x2="167.837" y2="471.85" gradientUnits="userSpaceOnUse">
<stop stop-color="#565EB1"/>
<stop offset="1" stop-color="#878ABF"/>
</linearGradient>
<linearGradient id="paint2_linear_909_1025" x1="99.5241" y1="488.209" x2="46.208" y2="453.67" gradientUnits="userSpaceOnUse">
<stop stop-color="#DB3EB4"/>
<stop offset="1" stop-color="#F26697"/>
</linearGradient>
<linearGradient id="paint3_linear_909_1025" x1="221.155" y1="506.388" x2="167.839" y2="471.85" gradientUnits="userSpaceOnUse">
<stop stop-color="#D12DC0"/>
<stop offset="1" stop-color="#F16399"/>
</linearGradient>
<linearGradient id="paint4_linear_909_1025" x1="462.479" y1="274" x2="294.487" y2="452.513" gradientUnits="userSpaceOnUse">
<stop offset="0.0241639" stop-color="#D12DC0"/>
<stop offset="1" stop-color="#FF7B87"/>
</linearGradient>
</defs>
</svg>
